<svg version="1" id="Ebene_3" xmlns="http://www.w3.org/2000/svg" x="0" y="0" width="610" height="648" viewBox="-181 -154 610 648" enable-background="new -181.235 -153.725 609.734 648" xml:space="preserve">
  <g id="rect2470">
    <image overflow="visible" opacity="1" width="490" height="641" transform="matrix(1 0 0 1 -61.5007 -146.7249)"/>
    <linearGradient id="SVGID_1_" gradientUnits="userSpaceOnUse" x1="699" y1="-300" x2="868" y2="7" gradientTransform="matrix(1 0.0011 0.0011 -1 -610.6781 38.1169)">
      <stop offset="0" stop-color="#FFFFFF"/>
      <stop offset="1" stop-color="#E1E1E1"/>
    </linearGradient>
    <path fill="url(#SVGID_1_)" d="M-46-138h278C294-94 364-28 413 43v428H-46V-138z"/>
    <path fill="none" stroke="#C8C8C8" stroke-width="1" d="M-46-138h278C294-94 364-28 413 43v428H-46V-138z"/>
  </g>
  <g id="path3395">
    <image overflow="visible" opacity="1" width="212" height="212" transform="matrix(1 0 0 1 216.4988 -153.7249)"/>
    <linearGradient id="SVGID_2_" gradientUnits="userSpaceOnUse" x1="912" y1="67" x2="938" y2="92" gradientTransform="matrix(1 0 0 -1 -610.564 39.2651)">
      <stop offset="0" stop-color="#FFFFFF"/>
      <stop offset="1" stop-color="#C8C8C8"/>
    </linearGradient>
    <path fill="url(#SVGID_2_)" d="M232-138C299-89 363-29 413 43 381 10 337-8 285-6 291-67 267-107 232-138z"/>
    <path fill="none" stroke="#C8C8C8" stroke-width="1" d="M232-138C299-89 363-29 413 43 381 10 337-8 285-6 291-67 267-107 232-138z"/>
  </g>
  <rect id="rect3372" x="-174" y="-95" fill="none" stroke="#C8C8C8" stroke-width="6" width="414" height="139"/>
  <path id="path4463" fill="#F91D0A" d="M116 263c11-22 24-47 34-71l0 0 4-10C141 131 133 90 140 64l0 0c2-7 10-11 18-11l0 0 5 0h1c12 0 17 15 18 20l0 0c1 10-3 26-3 26l0 0c0-7 0-17-4-26l0 0c-5-11-9-17-13-18l0 0c-2 1-4 4-5 10l0 0c-1 8-2 18-2 23l0 0c0 18 4 41 10 65l0 0c1-4 2-7 3-11l0 0c1-5 10-41 10-41l0 0c0 0-2 47-5 61l0 0c-1 3-1 6-2 9l0 0c11 32 30 60 51 80l0 0c9 8 19 15 30 20l0 0c22-3 43-5 60-5l0 0c23 0 40 4 47 10l0 0c3 3 5 7 5 12l0 0c0 2-1 6-1 7l0 0c0-1 0-7-18-13l0 0c-14-5-42-4-74-1l0 0c38 18 74 28 86 22l0 0c3-1 6-6 6-6l0 0c0 0-2 9-4 12l0 0c-2 3-6 5-9 6l0 0c-18 5-66-6-108-30l0 0c-46 7-98 19-138 33l0 0C64 390 34 422 10 410l0 0 -9-5c-4-2-4-7-3-11l0 0c3-14 20-35 56-56l0 0c4-2 21-11 21-11l0 0c0 0-13 12-15 15l0 0c-28 23-49 52-48 63l0 0 0 1C34 402 70 353 116 263M131 270c-8 15-15 28-22 40l0 0c39-16 80-26 119-34l0 0c-5-4-10-8-15-12l0 0c-22-18-38-41-50-65l0 0C155 220 145 242 131 270"/>
  <path fill="#F91D0A" d="M373 326h1c2 0 3 0 3-2 0-1-1-2-3-2 -1 0-1 0-2 0V326zM373 333h-2v-12c1 0 2 0 4 0 2 0 3 0 4 1 1 0 1 1 1 2 0 1-1 2-2 3v0c1 0 2 1 2 3 0 2 1 3 1 3h-2c0 0-1-1-1-3 0-1-1-2-3-2h-1V333zM375 338c-6 0-11-5-11-11 0-6 5-11 11-11 6 0 11 5 11 11C386 333 381 338 375 338zM384 327c0-5-4-9-9-9 -5 0-9 4-9 9 0 5 4 9 9 9C380 336 384 332 384 327z"/>
  <path fill="#1A171B" d="M168 414l-3-20c-1-6-2-15-3-21h0c-1 6-2 15-3 21l-3 20H168zM153 427l-4 22h-15l18-92h18l17 92H173l-4-22H153z"/>
  <path fill="#1A171B" d="M222 408c0-1 0-3 0-4 -1-5-3-9-6-9 -6 0-8 10-8 21 0 13 3 20 8 20 2 0 5-1 6-7 0-1 1-3 1-4V408zM237 355v75c0 6 0 13 1 19h-13l-1-8h0c-2 5-7 9-13 9 -13 0-19-15-19-34 0-23 9-35 19-35 5 0 9 3 10 7h0v-34H237z"/>
  <path fill="#1A171B" d="M269 437c6 0 7-12 7-22 0-9-1-22-7-22 -6 0-8 12-8 22 0 11 2 22 8 22H269zM268 450c-14 0-23-12-23-34 0-24 11-35 23-35 14 0 23 13 23 34 0 27-14 35-23 35H268z"/>
  <path fill="#1A171B" d="M315 425c0 2 0 3 1 4 2 6 4 7 6 7 6 0 8-8 8-21 0-12-3-20-8-20 -3 0-5 3-6 7 0 1-1 3-1 4V425zM300 355h15v35h0c3-5 7-8 13-8 11 0 17 14 17 33 0 23-9 36-20 36 -5 0-9-3-12-9h0l-1 8h-13c0-6 1-13 1-19V355z"/>
  <path fill="#1A171B" d="M382 409c0-9-2-16-7-16 -6 0-8 9-8 16H382zM366 421c0 12 6 16 13 16 5 0 9-1 11-2l2 12c-4 2-10 3-16 3 -16 0-25-12-25-33 0-22 10-36 24-36 13 0 20 12 20 31 0 4 0 7 0 9L366 421z"/>
  <image overflow="visible" opacity="0" width="444" height="170" transform="matrix(1 0 0 1 -187.9636 -107.1877)"/>
  <linearGradient id="SVGID_3_" gradientUnits="userSpaceOnUse" x1="74" y1="99" x2="-7" y2="-149">
    <stop offset="0" stop-color="#8A0000"/>
    <stop offset="0" style="stop-color:#900000;stop-opacity:1"/>
    <stop offset="0" style="stop-color:#A00000;stop-opacity:1"/>
    <stop offset="1" style="stop-color:#BC0000;stop-opacity:1"/>
    <stop offset="1" style="stop-color:#E20000;stop-opacity:1"/>
    <stop offset="1" style="stop-color:#FA0000;stop-opacity:1"/>
  </linearGradient>
  <rect x="-174" y="-94" fill="url(#SVGID_3_)" width="414" height="139"/>
  <linearGradient id="SVGID_4_" gradientUnits="userSpaceOnUse" x1="77" y1="109" x2="-10" y2="-159">
    <stop offset="0" stop-color="#5E0000"/>
    <stop offset="0" style="stop-color:#830000;stop-opacity:1"/>
    <stop offset="1" style="stop-color:#AE0000;stop-opacity:1"/>
    <stop offset="1" style="stop-color:#CD0000;stop-opacity:1"/>
    <stop offset="1" style="stop-color:#E00000;stop-opacity:1"/>
    <stop offset="1" style="stop-color:#E70000;stop-opacity:1"/>
  </linearGradient>
  <path fill="url(#SVGID_4_)" d="M249 53h-430V-103h430V53zM233-87h-399V38h399V-87z"/>
  <path fill="#FFF9F9" d="M-65-74h30c9 0 16 3 21 8 5 5 7 13 7 22 0 10-2 17-7 23 -5 5-12 8-21 8h-12v32h-18V-74M-47-57v26h10c4 0 6-1 8-3 2-2 3-6 3-10 0-4-1-7-3-10 -2-2-5-3-8-3H-47M23-56V1h7c7 0 13-2 17-7 4-5 6-12 6-21 0-9-2-16-6-21 -4-5-10-7-17-7H23M5-74h19c11 0 19 1 24 3 5 2 10 5 13 10 3 4 6 9 7 15 2 6 2 12 2 19 0 7-1 13-2 19C68-3 65 2 62 6c-4 5-8 8-14 10 -5 2-13 3-24 3H5V-74M86-74h49v18h-31v17h29v18h-29v40H86V-74"/>
</svg>
