<svg xmlns="http://www.w3.org/2000/svg" viewBox="0 0 64 64"><path fill="#ce9057" d="M63.79 30.28c.255 28.29-40.08 43.65-57.36 18.683C-5.093 33.6.67 12.47 16.032 4.793 27.558-.97 42.922 2.87 54.96 10.21c5.53 4.858 8.918 11.81 8.833 20.07"/><path fill="#b57c4d" d="M17.637 44.86c-1.332-5.497-6.44-8.82-7.606-14.424-1.02-4.93-.89-8.973.55-13.834 1.57-5.27 5.02-9.746 9.29-13.318-1.33.405-2.63.9-3.88 1.52C.62 12.49-5.15 33.618 6.38 48.974c7.37 10.647 18.93 13.94 29.75 12.05-8.42-2.57-16.22-6.812-18.49-16.16"/><path fill="#8a5f3d" d="M9.657 17.31c-.462 1.304 2.47 4.448 3.385 4.777.92.325.787-2.59.92-4.195.132-1.654.36-3.323-.56-3.652-.916-.324-3.277 1.766-3.745 3.07"/><path d="M20.822 58.01c.55.33 2.233-.725 2.46-1.116.23-.39-1.1-.598-1.815-.803-.736-.21-1.472-.46-1.7-.07-.23.39.508 1.67 1.055 2M42.705 38.8c.547.33 2.23-.727 2.46-1.118.23-.392-1.1-.6-1.817-.805-.734-.213-1.473-.466-1.702-.074-.23.387.51 1.663 1.06 1.997M20.504 25.92c.547.333 2.23-.724 2.46-1.116.23-.39-1.1-.6-1.817-.803-.736-.21-1.472-.47-1.7-.07-.23.39.508 1.67 1.057 2" fill="#724424"/><path fill="#8a5f3d" d="M41.04 51.726c-.22 1.363 3.237 3.92 4.202 4.074.962.15.304-2.687.135-4.292-.17-1.653-.254-3.332-1.22-3.488-.958-.152-2.897 2.335-3.117 3.706"/><g fill="#724424"><path d="M8.796 33.64c-.218 1.365 3.24 3.92 4.204 4.074.96.15.302-2.687.133-4.29-.17-1.653-.253-3.334-1.217-3.49-.96-.152-2.9 2.337-3.12 3.705m20.06-20.12c-.4-1.57-1.38-2.58-2.666-3.22-2.355-.71-5.066-.68-6.96.51.003-.01.005.02.01.01-.23.14-.452.31-.656.49-2.51 2.21-2.544 6.48.39 8.8.282.24.575.44.874.61.008.004.017.01.026.02.27.154.55.284.832.39.05.02.104.036.156.054.242.08.484.147.725.19.07.014.14.03.208.037.232.038.462.055.694.06.07.003.14.01.21.007.24 0 .48-.02.72-.06.05-.01.11-.01.17-.02.29-.05.57-.116.85-.21.06-.02.12-.284.18-.306.18-.07.37-.456.54-.456h-.02c2.63-1.362 4.53-3.866 3.7-6.924m-9.08 30.19c-.283-1.065-.98-1.762-1.893-2.198-1.673-.48-3.6-.457-4.947.353 0 0 .01.016.01.014-.16.09-.32.21-.46.34-1.78 1.51-1.8 4.42.28 6.01.2.16.41.3.62.42l.02.01c.2.11.39.19.59.27l.11.03c.17.05.35.1.51.13l.15.02c.17.02.33.03.5.04h.15c.18-.007.34-.02.52-.048.04-.005.08-.005.117-.015.21-.03.41-.08.61-.14.046-.01.085-.193.128-.21.136-.044.265-.31.39-.31h-.01c1.864-.93 3.223-2.64 2.63-4.73"/><path d="M23.687 21.12c.31.55.798.834 1.368.94 1 .023 2.066-.27 2.69-.916 0 .002-.004-.01-.006-.004.07-.078.14-.167.21-.256.76-1.096.35-2.716-1.04-3.29-.14-.062-.27-.106-.41-.142l-.01-.002c-.13-.034-.25-.05-.38-.062-.02-.002-.04-.004-.066-.004-.105-.007-.208-.007-.306.002-.03.002-.056.004-.084.01-.09.01-.182.025-.275.048-.03.006-.057.013-.084.022-.1.024-.19.058-.28.096-.02.01-.04.016-.06.024-.11.05-.21.104-.32.17-.02.012-.017.12-.037.132-.07.045-.1.21-.17.23l.01-.003c-.9.787-1.4 1.935-.765 3.01M52 16.69c-.28-1.062-.98-1.76-1.892-2.197-1.68-.478-3.606-.458-4.95.354 0-.002.002.016.004.01-.16.1-.32.216-.467.34-1.78 1.51-1.807 4.425.28 6.01.2.164.406.3.62.416.006.005.012.01.02.01.193.11.39.2.59.27.04.014.075.023.11.037.173.053.35.1.516.13.05.01.1.02.15.025.17.022.33.036.5.04.05 0 .1.005.15.005.17-.004.348-.02.51-.043.04-.006.08-.006.12-.013.21-.034.41-.083.61-.145.05-.02.09-.2.13-.21.137-.05.266-.31.39-.31h-.01c1.867-.93 3.224-2.64 2.63-4.73m8.927 17.16c-.484-1.83-1.683-3.03-3.25-3.78-2.874-.83-6.19-.79-8.5.6.005-.01.01.02 0 .02-.28.16-.55.37-.8.58-3.06 2.6-3.102 7.6.48 10.32.34.28.7.52 1.065.72.01 0 .02.01.033.02.33.18.67.34 1.017.46l.19.06c.293.09.59.17.88.22.09.015.174.03.26.04.28.04.564.064.85.07.085 0 .17.007.264.007.292-.01.586-.03.876-.07.07-.01.14-.018.206-.026.35-.06.7-.14 1.045-.25.077-.02.148-.332.22-.36.227-.076.45-.527.667-.527h-.023c3.205-1.608 5.536-4.54 4.515-8.13"/></g></svg>