<?xml version="1.0" encoding="UTF-8" standalone="no"?>
<!DOCTYPE svg  PUBLIC '-//W3C//DTD SVG 1.1//EN'  'http://www.w3.org/Graphics/SVG/1.1/DTD/svg11.dtd'>
<svg xmlns="http://www.w3.org/2000/svg">
<defs>
<font id="DiavloLight-Regular" horiz-adv-x="677">
<font-face underline-position="-50" font-weight="300" descent="-200" panose-1="2 0 0 0 0 0 0 0 0 0" units-per-em="1000" unicode-range="U+0020-25CA" bbox="-22 -248 1019 953" x-height="494" underline-thickness="50" font-family="DiavloLight" ascent="800" cap-height="704"/>
<missing-glyph horiz-adv-x="1000"/>
<glyph glyph-name=".notdef" horiz-adv-x="1000"/>
<glyph glyph-name=".null" horiz-adv-x="0"/>
<glyph glyph-name="nonmarkingreturn" horiz-adv-x="333"/>
<glyph glyph-name="space" horiz-adv-x="280" unicode=" "/>
<glyph glyph-name="exclam" horiz-adv-x="249" unicode="!" d="M114 66h49q11 0 11 -14v-52h-49q-11 0 -11 14v52zM172 660v-496q-4 0 -10.5 1t-18 4.5t-19 13.5t-7.5 24v496q2 0 6 -0.5t13.5 -2.5t16.5 -6t13 -13t6 -21z"/>
<glyph glyph-name="quotedbl" horiz-adv-x="350" unicode='&quot;' d="M222 591v104h27q28 0 28 -49v-35q0 -123 -62 -123q-14 0 -22 8q29 9 29 95zM85 591v104h27q28 0 28 -49v-35q0 -123 -62 -123q-14 0 -22 8q29 9 29 95z"/>
<glyph glyph-name="numbersign" horiz-adv-x="660" unicode="#" d="M247 436l-44 -180h201l44 180h-201zM120 490h82l50 209q46 -15 46 -45q0 -6 -1 -10l-37 -154h201l50 209q46 -15 46 -45q0 -6 -1 -10l-37 -154h106q1 -3 1 -14q0 -40 -29 -40h-91l-44 -180h105q1 -3 1 -14q0 -40 -29 -40h-90l-50 -209q-46 12 -46 45q0 6 1 9l37 155h-201 l-50 -209q-46 12 -46 45q0 6 1 9l37 155h-97q-1 4 -1 16q0 38 28 38h83l44 180h-96q-1 4 -1 16q0 38 28 38z"/>
<glyph glyph-name="dollar" horiz-adv-x="600" unicode="$" d="M115 517q0 -59 37.5 -83t117.5 -38v254q-77 -3 -116 -33.5t-39 -99.5zM474 191q0 64 -37 93t-112 44v-283q149 9 149 146zM270 -26v15q-54 2 -97 13.5t-73 38t-30 64.5q0 32 16 73q0 -124 184 -133v293q-42 7 -67 13t-57 19t-49 30t-29.5 45.5t-12.5 66.5q0 184 215 194 v54q6 0 15 -1t24.5 -12t15.5 -31v-10q187 -6 187 -114q0 -30 -18 -72q0 120 -169 130v-263q39 -7 65.5 -14t56 -21t47 -33.5t29 -51t11.5 -73.5q0 -191 -209 -205v-59q-6 0 -15 1t-24.5 12t-15.5 31z"/>
<glyph glyph-name="percent" horiz-adv-x="744" unicode="%" d="M278 514v71q0 36 -19.5 55t-73.5 19q-56 0 -74.5 -18.5t-18.5 -55.5v-71q0 -39 18 -56.5t75 -17.5q54 0 73.5 18t19.5 56zM652 109v71q0 36 -19.5 55t-73.5 19q-56 0 -74.5 -18.5t-18.5 -55.5v-71q0 -39 18 -56.5t75 -17.5q54 0 73.5 18t19.5 56zM123 145l473 480 q21 -17 21 -43q0 -22 -21 -43l-466 -466q-20 20 -20 43q0 16 13 29zM699 206v-125q0 -44 -37.5 -67.5t-102.5 -23.5q-64 0 -101.5 23.5t-37.5 67.5v125q0 42 38 67t101 25q64 0 102 -24.5t38 -67.5zM324 611v-125q0 -44 -37.5 -67.5t-101.5 -23.5q-65 0 -102.5 23.5 t-37.5 67.5v125q0 43 38 67.5t102 24.5q63 0 101 -25t38 -67z"/>
<glyph glyph-name="ampersand" horiz-adv-x="583" unicode="&amp;" d="M304 330h-32q-71 0 -107.5 -40t-36.5 -104q0 -61 44 -101.5t132 -40.5q94 0 154 31.5t60 91.5q15 -31 15 -62q0 -41 -39 -69t-88 -38t-102 -10q-105 0 -169.5 50t-64.5 130v30q0 57 27.5 99t85.5 58q-103 28 -103 149v25q0 79 63 127.5t161 48.5q50 0 96 -9.5t83.5 -37.5 t37.5 -69q0 -31 -13 -62q0 59 -58.5 90.5t-145.5 31.5q-80 0 -123 -38.5t-43 -96.5q0 -66 38.5 -97t127.5 -32v139q2 0 6 -0.5t13.5 -3t16.5 -6.5t13 -13.5t6 -21.5v-93h140q0 -6 -1 -15.5t-11 -25t-26 -15.5h-102v-85q0 -20 4 -38.5t8 -26.5l4 -8q-3 0 -7.5 1.5t-17 8 t-22 16t-17 28.5t-7.5 43v61z"/>
<glyph glyph-name="quotesingle" horiz-adv-x="213" unicode="&apos;" d="M85 591v104h27q28 0 28 -49v-35q0 -123 -62 -123q-14 0 -22 8q29 9 29 95z"/>
<glyph glyph-name="parenleft" horiz-adv-x="299" unicode="(" d="M55 251q0 199 52.5 330t125.5 131q22 0 41 -18q-58 -1 -109 -134t-51 -309t51 -309t109 -134q-19 -18 -41 -18q-73 0 -125.5 131.5t-52.5 329.5z"/>
<glyph glyph-name="parenright" horiz-adv-x="299" unicode=")" d="M244 251q0 -198 -52.5 -329.5t-125.5 -131.5q-22 0 -41 18q58 1 109 134t51 309t-51 309t-109 134q19 18 41 18q73 0 125.5 -131t52.5 -330z"/>
<glyph glyph-name="asterisk" horiz-adv-x="393" unicode="*" d="M132 469l-19 8q-25 15 -25 41q0 34 63 84q-34 12 -65 12q-23 0 -41 -21q-2 14 -2 21q0 20 13.5 35t43.5 15q18 0 71 -22q-15 81 -61 89q20 20 42 20q23 0 40 -27.5t23 -76.5q50 42 50 75q0 11 -4 22l19 -8q25 -15 25 -41q0 -38 -64 -84q31 -12 66 -12q23 0 41 21 q2 -14 2 -21q0 -20 -13.5 -35t-43.5 -15q-15 0 -70 23q12 -82 60 -90q-20 -20 -42 -20q-23 0 -40 26.5t-23 76.5q-51 -41 -51 -75q0 -8 5 -21z"/>
<glyph glyph-name="plus" horiz-adv-x="485" unicode="+" d="M216 108v121h-138q-3 8 -3 19q0 36 27 36h114v135q4 1 11 1q18 0 29.5 -8t11.5 -23v-105h140q1 -5 1 -17q0 -38 -26 -38h-115v-151q-2 0 -4 -0.5t-4 -0.5q-17 0 -30.5 8t-13.5 23z"/>
<glyph glyph-name="comma" horiz-adv-x="217" unicode="," d="M69 73h18h45q8 0 8 -10v-58q0 -115 -54 -115q-17 0 -34 10q31 5 31 56q0 9 -3 42z"/>
<glyph glyph-name="hyphen" horiz-adv-x="485" unicode="-" d="M104 284h304q1 -3 1 -14q0 -40 -29 -40h-303q-1 4 -1 16q0 38 28 38z"/>
<glyph glyph-name="period" horiz-adv-x="221" unicode="." d="M77 73h54q13 0 13 -15v-58h-54q-13 0 -13 16v57z"/>
<glyph glyph-name="slash" horiz-adv-x="306" unicode="/" d="M24 -184l214 930q46 -15 46 -45q0 -6 -1 -10l-214 -929q-46 12 -46 45q0 6 1 9z"/>
<glyph glyph-name="zero" horiz-adv-x="607" unicode="0" d="M479 178v338q0 69 -42.5 102.5t-132.5 33.5q-91 0 -133.5 -33.5t-42.5 -102.5v-338q0 -70 42.5 -103t133.5 -33q90 0 132.5 33t42.5 103zM537 531v-368q0 -86 -63 -130.5t-170 -44.5q-108 0 -171 44.5t-63 130.5v368q0 85 63 130t171 45q107 0 170 -45t63 -130z"/>
<glyph glyph-name="one" horiz-adv-x="502" unicode="1" d="M149 693q44 0 84.5 2t58.5 4l19 2q-7 -40 -7 -85v-561l176 2q2 -10 2 -20q0 -37 -27 -37h-386q-2 10 -2 19q0 36 26 36h153v585q-47 -6 -104 -6q-42 0 -62 -20t-20 -48v-4q-15 30 -15 56q0 35 27.5 55t76.5 20z"/>
<glyph glyph-name="two" horiz-adv-x="561" unicode="2" d="M55 0v71q0 58 29 103t72.5 71t94.5 53t94.5 50t72.5 61t29 87v17q0 59 -43 98t-123 39q-87 0 -145.5 -31.5t-58.5 -90.5q-15 34 -15 61q0 32 21 55.5t55.5 36.5t70.5 19t72 6q99 0 161.5 -48t62.5 -127v-40q0 -51 -21.5 -90.5t-56 -65.5t-76.5 -47.5t-84 -42.5t-76.5 -44 t-56 -58t-21.5 -79v-9h340q17 0 31.5 1.5t20.5 3.5l6 1q0 -2 -0.5 -6.5t-3 -15t-6.5 -18.5t-14 -14.5t-23 -6.5h-409z"/>
<glyph glyph-name="three" horiz-adv-x="580" unicode="3" d="M286 650q-87 0 -145.5 -32t-58.5 -91q-15 36 -15 62q0 32 21 55.5t55.5 36.5t70.5 19t72 6q98 0 161 -49t63 -128v-25q0 -121 -103 -149q57 -16 85 -59.5t28 -100.5v-30q0 -80 -64.5 -128.5t-169.5 -48.5q-53 0 -102 10.5t-86.5 38.5t-37.5 69q0 29 12 57q0 -58 60 -88.5 t154 -30.5q87 0 131.5 38.5t44.5 97.5q0 63 -32 102t-97 46h-7q-7 1 -10 3t-9 6.5t-9 15.5t-4 27q86 3 122 34.5t36 99.5q0 59 -42.5 97.5t-123.5 38.5z"/>
<glyph glyph-name="four" horiz-adv-x="510" unicode="4" d="M355 264v303q0 17 1.5 36.5t3.5 30.5l2 11q-18 -23 -31 -36q-69 -69 -145 -169.5t-102 -175.5h271zM15 210q3 59 49.5 143.5t108.5 160t107 124.5t65 67q3 0 7.5 -0.5t16 -3t20.5 -6.5t16.5 -13t7.5 -20v-398h72q0 -7 -1 -16t-10 -23.5t-26 -14.5h-35v-220q-4 0 -10.5 1 t-19 4.5t-20.5 13.5t-8 24v177h-340z"/>
<glyph glyph-name="five" horiz-adv-x="551" unicode="5" d="M268 -12q-29 0 -60.5 4t-73 14t-68 34.5t-26.5 60.5q0 23 13 62q0 -58 60 -88.5t155 -30.5q91 0 133 31.5t42 102.5v70q0 136 -175 136h-127l-52 -2q4 15 4 64v163q0 25 2 40t15 29.5t37 14.5h259q16 0 30.5 2t21.5 4l6 2q0 -3 -0.5 -7t-3 -15t-6.5 -19t-14 -15t-23 -7 h-266v-137q0 -19 -1.5 -35t-3.5 -23l-2 -7h122q235 0 235 -175v-96q0 -85 -63 -131t-170 -46z"/>
<glyph glyph-name="six" horiz-adv-x="602" unicode="6" d="M304 42q91 0 132.5 32t41.5 104v53q0 71 -40 103.5t-124 32.5q-185 0 -185 -128v-61q0 -72 41.5 -104t133.5 -32zM537 246v-83q0 -86 -63 -130.5t-170 -44.5q-108 0 -171 44.5t-63 130.5v363q0 86 63.5 133t170.5 47q41 0 76 -4.5t71.5 -15.5t58 -34.5t21.5 -56.5 q0 -31 -13 -61q0 57 -61.5 86.5t-152.5 29.5q-175 0 -175 -139v-95l-3 -77q1 3 4 8.5t17 20t33 25t54.5 19.5t79.5 9q101 0 162 -45t61 -130z"/>
<glyph glyph-name="seven" horiz-adv-x="516" unicode="7" d="M437 639h-368q-16 0 -31 -2t-22 -4l-6 -2q0 3 0.5 7t3 15t7 19t14.5 15t23 7h443q0 -65 -19 -125t-49.5 -107t-67 -91.5t-73.5 -87.5t-67.5 -85t-49.5 -93t-19 -105v-6q-6 -4 -18 -4q-39 0 -39 31q0 66 31 131t77.5 120.5t94 110t86.5 121.5t49 135z"/>
<glyph glyph-name="eight" horiz-adv-x="607" unicode="8" d="M304 652q-85 0 -125.5 -33.5t-40.5 -104.5q0 -70 36 -102.5t122 -32.5h16q85 0 121 32.5t36 102.5q0 71 -40.5 104.5t-124.5 33.5zM479 182q0 143 -175 143q-91 0 -133.5 -36t-42.5 -110q0 -71 42 -104t134 -33q90 0 132.5 34t42.5 106zM70 163v37q0 101 100 151 q-49 24 -69.5 58.5t-20.5 87.5v34q0 84 61.5 129.5t162.5 45.5q100 0 161.5 -45.5t61.5 -129.5v-34q0 -54 -20 -88t-69 -58q99 -50 99 -151v-34q0 -86 -63 -132t-170 -46q-108 0 -171 44.5t-63 130.5z"/>
<glyph glyph-name="nine" horiz-adv-x="602" unicode="9" d="M298 652q-91 0 -132.5 -32t-41.5 -104v-53q0 -71 40 -103.5t124 -32.5q185 0 185 128v61q0 72 -41.5 104t-133.5 32zM65 448v83q0 86 63 130.5t170 44.5q108 0 171 -44.5t63 -130.5v-363q0 -86 -63.5 -133t-170.5 -47q-41 0 -76 4.5t-71.5 15.5t-58 34.5t-21.5 56.5 q0 31 13 61q0 -57 61.5 -86.5t152.5 -29.5q175 0 175 139v95l3 77q-1 -3 -4 -8.5t-17 -20t-33 -25t-54.5 -19.5t-79.5 -9q-101 0 -162 45t-61 130z"/>
<glyph glyph-name="colon" horiz-adv-x="221" unicode=":" d="M92 446h54q13 0 13 -15v-58h-54q-13 0 -13 16v57zM92 73h54q13 0 13 -15v-58h-54q-13 0 -13 16v57z"/>
<glyph glyph-name="semicolon" horiz-adv-x="221" unicode=";" d="M88 73h18h45q8 0 8 -10v-58q0 -115 -54 -115q-17 0 -34 10q31 5 31 56q0 9 -3 42zM92 446h54q13 0 13 -15v-58h-54q-13 0 -13 16v57z"/>
<glyph glyph-name="less" horiz-adv-x="410" unicode="&lt;" d="M122 248l203 -203q-17 -26 -36 -26q-16 0 -52 36l-148 148q-24 24 -24 44q0 21 25 46l199 199q29 -18 29 -38q0 -4 -2.5 -9t-8.5 -12t-9.5 -10.5l-13 -13l-11.5 -11.5z"/>
<glyph glyph-name="equal" horiz-adv-x="485" unicode="=" d="M104 354h304q1 -3 1 -14q0 -40 -29 -40h-303q-1 4 -1 16q0 38 28 38zM104 218h304q1 -3 1 -14q0 -40 -29 -40h-303q-1 4 -1 16q0 38 28 38z"/>
<glyph glyph-name="greater" horiz-adv-x="410" unicode="&gt;" d="M65 45l203 203l-151 150l-11.5 11.5l-13 13t-9.5 10.5t-8.5 12t-2.5 9q0 20 29 38l199 -199q25 -25 25 -46q0 -20 -24 -44l-148 -148q-36 -36 -52 -36q-19 0 -36 26z"/>
<glyph glyph-name="question" horiz-adv-x="515" unicode="?" d="M186 66h49q11 0 11 -14v-52h-49q-11 0 -11 14v52zM247 649q-76 0 -117.5 -27t-41.5 -77q-14 31 -14 62q0 48 52.5 72.5t120.5 24.5q100 0 161.5 -43t61.5 -121v-25q0 -40 -17 -72t-42.5 -51t-55.5 -40t-55.5 -38.5t-42.5 -45.5t-17 -62v-48q-2 0 -5.5 0.5t-12 3t-15 6.5 t-12 13.5t-5.5 22.5v22q0 42 23 75t55.5 55l65 44t55.5 52.5t23 69.5q0 60 -41.5 93.5t-123.5 33.5z"/>
<glyph glyph-name="at" horiz-adv-x="878" unicode="@" d="M242 128q0 47 23 79t57 45.5t75 24.5t77 17.5t62 21.5t30 38q0 97 -133 97q-80 0 -121.5 -30t-41.5 -80q-18 34 -18 64q0 48 52 74t129 26q89 0 138.5 -40.5t49.5 -113.5l1 -169q0 -10 -2 -21t-7.5 -29t-21 -32.5t-38.5 -21.5q16 39 16 78v129q-4 -19 -33 -31 t-67.5 -18.5t-77 -16t-65 -31.5t-26.5 -58q0 -44 52.5 -67t134.5 -23q60 0 104 8t81.5 27.5t56.5 57.5t19 94v175q0 88 -57.5 145.5t-177.5 57.5h-149q-119 0 -176.5 -57.5t-57.5 -145.5v-314q0 -80 39 -128t103 -48q12 0 24 2t18 4l5 2q-2 -22 -27 -34t-52 -12 q-72 0 -118.5 56t-46.5 145v340q0 104 78.5 172.5t211.5 68.5h149q132 0 210.5 -68.5t78.5 -172.5v-201q0 -226 -319 -226q-64 0 -116 12.5t-89 45t-37 82.5z"/>
<glyph glyph-name="A" horiz-adv-x="602" unicode="A" d="M159 287h284l-38 126q-20 65 -46 118.5t-42 74.5l-16 21q-7 -8 -18 -23t-38.5 -70.5t-47.5 -120.5zM479 162l-20 70h-316l-20 -70q-2 -7 -7 -25.5t-7.5 -27t-8 -25t-10 -25t-10.5 -21t-13 -19.5t-15.5 -14t-19 -10t-22.5 -3q-7 0 -10 1q5 9 13 28t18.5 50.5t20 60.5 t23.5 75t23 75.5t25 81.5t23 75q59 191 155 266q96 -75 155 -266q7 -23 23 -75t25 -81.5t23 -75.5t23.5 -75t20 -60.5t18.5 -50.5t13 -28q-3 -1 -10 -1q-12 0 -22.5 3t-19 10t-15.5 14t-13 19.5t-10.5 21t-10 25t-8 25t-7.5 27t-7 25.5z"/>
<glyph glyph-name="B" horiz-adv-x="577" unicode="B" d="M279 639h-136v-261h144q84 0 120.5 33.5t36.5 101.5q0 67 -40 96.5t-125 29.5zM287 325h-144v-271h136q91 0 133 31.5t42 98.5t-41.5 104t-125.5 37zM85 44v650h194q223 0 223 -164v-32q0 -52 -24.5 -90.5t-65.5 -55.5q45 -19 72.5 -59t27.5 -92v-32q0 -85 -62.5 -127 t-170.5 -42h-123q-3 0 -7.5 0.5t-17 3t-22 6.5t-17 13t-7.5 21z"/>
<glyph glyph-name="C" horiz-adv-x="660" unicode="C" d="M344 650q-211 0 -211 -183v-239q0 -184 206 -184q33 0 65 3.5t76.5 14.5t71.5 38.5t26 67.5q16 -35 16 -63q0 -35 -24.5 -60t-66 -36.5t-80.5 -16t-84 -4.5q-117 0 -190.5 54t-73.5 171v268q0 116 76 170.5t193 54.5q41 0 78 -4t80 -14t68.5 -33.5t25.5 -57.5 q0 -30 -18 -63q0 34 -24.5 58.5t-63.5 36t-75 16.5t-71 5z"/>
<glyph glyph-name="D" horiz-adv-x="686" unicode="D" d="M338 0h-183q-10 0 -22.5 1.5t-30 12.5t-17.5 30v650h253q56 0 102.5 -11t86 -35t62 -70t22.5 -109v-244q0 -63 -22.5 -109t-62 -70t-86 -35t-102.5 -11zM338 640h-195v-586h195q215 0 215 181v225q0 180 -215 180z"/>
<glyph glyph-name="E" horiz-adv-x="551" unicode="E" d="M394 355h-251v-301h358q0 -7 -1 -16t-10 -23.5t-26 -14.5h-307q-8 0 -20 1t-32 12t-20 31v650h416v-5.5t-2 -13t-5.5 -16.5t-11.5 -13t-18 -6h-321v-231h245q26 0 44.5 3.5t23.5 7.5l5 3q0 -13 -4.5 -27t-20.5 -27.5t-42 -13.5z"/>
<glyph glyph-name="F" horiz-adv-x="478" unicode="F" d="M143 409h205q26 0 44.5 3.5t23.5 7.5l5 3q0 -13 -4.5 -27t-20.5 -27.5t-42 -13.5h-211v-365q-6 0 -16 1t-26 12t-16 31v660h386v-5.5t-2 -13t-5.5 -16.5t-11.5 -13t-18 -6h-291v-231z"/>
<glyph glyph-name="G" d="M75 213v268q0 116 76 170.5t193 54.5q39 0 76.5 -4t80.5 -14.5t69 -34.5t26 -58q0 -26 -18 -62q0 34 -24.5 58.5t-63.5 36.5t-75 17t-71 5q-211 0 -211 -183v-239q0 -184 206 -184t206 179v71h-152q-20 0 -32.5 16t-14.5 32l-2 16q24 -10 64 -10h194v-140q0 -60 -21 -104 t-58.5 -68.5t-83 -36t-100.5 -11.5q-117 0 -190.5 54t-73.5 171z" unicode="G"/>
<glyph glyph-name="H" horiz-adv-x="690" unicode="H" d="M547 34v301h-404v-345q-6 0 -16 1t-26 12t-16 31v670q6 0 16 -1t26 -12t16 -31v-270h404v314q6 0 16 -1t26 -12t16 -31v-670q-6 0 -16 1t-26 12t-16 31z"/>
<glyph glyph-name="I" horiz-adv-x="228" unicode="I" d="M85 34v670q6 0 16 -1t26 -12t16 -31v-670q-6 0 -16 1t-26 12t-16 31z"/>
<glyph glyph-name="J" horiz-adv-x="218" unicode="J" d="M133 658v-704q0 -71 -22.5 -112t-62.5 -41q-22 0 -40 18q34 0 50.5 48.5t16.5 111.5v725q8 0 19 -2t25 -13.5t14 -30.5z"/>
<glyph glyph-name="K" horiz-adv-x="574" unicode="K" d="M143 360v-370q-6 0 -16 1t-26 12t-16 31v670q6 0 16 -1t26 -12t16 -31v-260q58 2 101.5 18t80.5 50t65.5 75.5t64.5 108.5q29 54 82 54l13 -1q-10 -15 -32 -57.5t-44.5 -80t-53 -79t-71.5 -70.5t-86 -37q45 -5 88 -37.5t78 -84t61.5 -98.5t53 -100t36.5 -70 q-12 -3 -24 -3q-23 0 -40 13t-33 44q-4 8 -12 23l-31.5 58.5t-29.5 53t-32.5 50.5t-34.5 41.5t-40.5 37t-44.5 26t-53.5 19t-61.5 6.5z"/>
<glyph glyph-name="L" horiz-adv-x="484" unicode="L" d="M431 0h-274q-8 0 -20 1t-32 12t-20 31v660q6 0 16 -1t26 -12t16 -31v-606h262q26 0 44.5 2.5t23.5 5.5l5 2q0 -19 -13 -41.5t-34 -22.5z"/>
<glyph glyph-name="M" horiz-adv-x="788" unicode="M" d="M645 34v520l5 84l-242 -491q-30 0 -57 44l-213 450q5 -46 5 -87v-564q-6 0 -16 1t-26 12t-16 31v660h49q4 0 11.5 -1.5t23.5 -13t26 -32.5l197 -420l225 467q3 0 9 -0.5t21 -3t26 -6.5t20.5 -13t9.5 -21v-660q-6 0 -16 1t-26 12t-16 31z"/>
<glyph glyph-name="N" horiz-adv-x="691" unicode="N" d="M195 646l322 -521l39 -69q-8 49 -8 71v567q6 0 16 -1t26 -12t16 -31v-660q-37 0 -64.5 15.5t-37.5 30.5l-9 16l-360 579q8 -43 8 -83v-558q-6 0 -16 1t-26 12t-16 31v660q29 0 43.5 -1.5t33.5 -12.5t33 -34z"/>
<glyph glyph-name="O" d="M544 217v260q0 87 -43 131t-163 44q-62 0 -103.5 -12.5t-63 -37t-30 -54t-8.5 -71.5v-260q0 -87 42.5 -131t162.5 -44t163 44t43 131zM602 490v-286q0 -104 -65.5 -160t-197.5 -56q-133 0 -198.5 56t-65.5 160v286q0 104 65.5 160t198.5 56q132 0 197.5 -56t65.5 -160z " unicode="O"/>
<glyph glyph-name="P" horiz-adv-x="566" unicode="P" d="M85 34v660h164q45 0 81.5 -5.5t71 -20.5t58.5 -38.5t38 -62t14 -89.5v-18q0 -217 -263 -217h-106v-253q-6 0 -16 1t-26 12t-16 31zM249 640h-106v-343h106q101 0 153 36t52 136q0 93 -53.5 132t-151.5 39z"/>
<glyph glyph-name="Q" d="M544 217v260q0 89 -42.5 132t-163.5 43q-120 0 -162.5 -43t-42.5 -132v-260q0 -90 42.5 -132.5t162.5 -42.5q121 0 163.5 42.5t42.5 132.5zM602 490v-286q0 -207 -240 -216v-33q0 -60 51.5 -94t121.5 -34q57 0 107 26.5t50 82.5q0 2 -0.5 5.5t-0.5 5.5q16 -32 16 -61 q0 -53 -49.5 -84t-123.5 -31q-89 0 -157 45t-68 124v49q-234 10 -234 215v286q0 104 65.5 160t198.5 56q132 0 197.5 -56t65.5 -160z" unicode="Q"/>
<glyph glyph-name="R" horiz-adv-x="547" unicode="R" d="M279 640h-136v-261h144q84 0 120.5 34t36.5 102q0 65 -40.5 95t-124.5 30zM502 530v-30q0 -83 -53.5 -126t-144.5 -43h-16q50 -16 95 -64.5t69.5 -96t51 -105t36.5 -73.5q-18 -2 -25 -2q-22 0 -37 11.5t-31 43.5q-68 132 -94 169q-61 86 -155 108q-25 6 -55 8v-340 q-2 0 -6 0.5t-14 3t-17.5 6.5t-14 13t-6.5 21v660h194q223 0 223 -164z"/>
<glyph glyph-name="S" horiz-adv-x="619" unicode="S" d="M55 512q0 104 72 149.5t187 45.5q43 0 80.5 -5.5t72.5 -17.5t55 -35.5t20 -56.5q0 -30 -18 -72q0 131 -217 131q-192 0 -192 -134q0 -41 25 -66.5t64.5 -36.5t87.5 -18.5t95.5 -18t87 -28.5t64.5 -57.5t25 -97.5q0 -102 -69 -154t-185 -52q-58 0 -109.5 10.5t-91 38.5 t-39.5 68q0 32 16 73q0 -70 66 -102t164 -32q93 0 140.5 39t47.5 108q0 52 -33.5 84t-83 42t-108 22t-108 25t-83 50.5t-33.5 97.5z"/>
<glyph glyph-name="T" horiz-adv-x="531" unicode="T" d="M472 640h-179v-650q-6 0 -16 1t-26 12t-16 31v606h-175q-33 0 -45.5 22.5t-12.5 45.5q10 -14 74 -14h380q28 0 46.5 3.5t22.5 6.5l4 4q0 -14 -3.5 -27t-17 -27t-36.5 -14z"/>
<glyph glyph-name="U" d="M602 661v-464q0 -98 -76 -153.5t-187 -55.5q-112 0 -188 55.5t-76 153.5v508q6 0 16 -1t26 -12t16 -31v-452q0 -77 56.5 -121t149.5 -44q92 0 148.5 44t56.5 121v496q6 0 16 -1t26 -12t16 -31z" unicode="U"/>
<glyph glyph-name="V" horiz-adv-x="622" unicode="V" d="M476 267q-17 -55 -40 -104.5t-44 -80.5t-40 -54t-30 -32l-11 -10q-4 4 -12 11t-29.5 32.5t-41 55.5t-43 79t-39.5 103q-117 393 -141 432h11q15 0 27.5 -5t22.5 -16t17 -21t14.5 -29.5t11 -31t10 -34.5t9.5 -32l78 -251q22 -71 48.5 -123t41.5 -68l15 -17q7 7 17.5 21 t38.5 68t48 119l78 251q2 7 9.5 32t11 35t11 30.5t14.5 29.5t17 21t22.5 16.5t27.5 4.5h10q-8 -13 -20 -45t-27.5 -81.5t-29.5 -95.5t-33 -109.5t-30 -100.5z"/>
<glyph glyph-name="W" horiz-adv-x="940" unicode="W" d="M311 -14q-4 2 -10.5 6.5t-25.5 24t-37.5 46t-42.5 77t-43 112.5l-81 258q-52 164 -66 188h11q15 0 27.5 -5t23 -16.5t17.5 -21t14 -29t11 -30.5t10.5 -35t9.5 -32l79 -251q23 -72 48.5 -125t39.5 -70l15 -17q6 5 17 17.5t45.5 75.5t69.5 154q-41 162 -41 295 q0 43 12 62.5t53 19.5q-4 -56 -4 -84q0 -94 17 -184.5t41.5 -152t49 -109.5t41.5 -71l17 -23q6 6 16 18.5t37 67t51 126.5l78 251q3 9 11.5 37.5t12.5 40.5t14 33.5t19 31t23.5 18t32.5 8.5h11q-16 -26 -66 -188l-81 -258q-19 -62 -42.5 -112.5t-43.5 -77.5t-37 -45.5 t-27 -24.5l-9 -6q-4 3 -10 9.5t-25.5 29.5t-37.5 50t-42 72t-43 94q-17 -48 -39.5 -92t-42.5 -72.5t-38 -50t-29 -30.5zM935 698v1v-1zM5 698v1q-1 -1 0 -1z"/>
<glyph glyph-name="X" horiz-adv-x="525" unicode="X" d="M525 698q-10 -15 -45.5 -89t-80 -148t-90.5 -117q46 -46 90 -120.5t79.5 -146.5t44.5 -87h-10q-51 0 -80 53q-11 21 -42 79.5t-43.5 80t-36.5 54t-48 53.5q-19 -17 -35.5 -37t-35.5 -50.5t-30 -49.5t-35.5 -65t-34.5 -65q-29 -53 -80 -53h-10q9 15 44 87t79.5 146.5 t90.5 120.5q-46 43 -90.5 117t-79.5 148t-45 89q0 1 13 1q48 0 77 -54q7 -13 26 -49.5t27 -51t25 -43.5t29 -46t29.5 -38t35.5 -37q21 20 38.5 41t38.5 55t29.5 48t34.5 63t31 58q29 54 77 54z"/>
<glyph glyph-name="Y" horiz-adv-x="528" unicode="Y" d="M293 303h1v-313q-7 0 -16.5 1t-26 12.5t-16.5 31.5v268q-50 42 -99 127.5t-87 170.5t-47 98q0 1 13 1q45 0 76 -54q7 -11 36 -74.5t64 -123.5t73 -96q38 36 73 96t64 123.5t36 74.5q31 54 76 54l13 -1q-9 -13 -47 -98t-87 -170.5t-99 -127.5z"/>
<glyph glyph-name="Z" horiz-adv-x="548" unicode="Z" d="M466 0h-433q0 72 37 140.5t92 125t112 112t105 124t62 138.5h-383q0 6 1 15t10.5 24t26.5 15h407q-1 -70 -28.5 -136.5t-68.5 -116t-90.5 -102t-93.5 -95t-78.5 -93t-43.5 -97.5h345q26 0 44.5 3t23.5 6l5 3q0 -23 -12 -44.5t-40 -21.5z"/>
<glyph glyph-name="bracketleft" horiz-adv-x="260" unicode="[" d="M85 -24v718h150q0 -5 -1 -13.5t-10.5 -22t-26.5 -13.5h-54v-663h54q16 0 25.5 -12.5t11 -21.5t1.5 -15h-81q-3 0 -7.5 0.5t-16.5 2.5t-21 6t-16.5 13t-7.5 21z"/>
<glyph glyph-name="backslash" horiz-adv-x="298" unicode="\" d="M269 -206l-276 947q15 3 23 3q31 0 39 -25l274 -947q-15 -3 -22 -3q-31 0 -38 25z"/>
<glyph glyph-name="bracketright" horiz-adv-x="259" unicode="]" d="M174 694v-718q0 -19 -17 -30t-35 -12l-17 -1h-80q0 49 37 49h54v663h-54q-16 0 -25.5 12.5t-10.5 24.5l-1 12h149z"/>
<glyph glyph-name="asciicircum" horiz-adv-x="546" unicode="^" d="M482 436l-203 203l-150 -151l-11.5 -11.5l-13 -13t-10.5 -9.5t-12 -8.5t-9 -2.5q-20 0 -38 28l199 200q25 25 46 25q20 -2 44 -24l148 -148l8 -8l8 -8l7.5 -7.5t6.5 -8.5t4 -9t2 -10q0 -8 -7 -19t-19 -18z"/>
<glyph glyph-name="underscore" horiz-adv-x="520" unicode="_" d="M29 -8h488q1 -4 1 -15q0 -39 -24 -39h-491q-2 10 -2 16q0 38 28 38z"/>
<glyph glyph-name="grave" horiz-adv-x="489" unicode="`" d="M195 750q-2 -6 -2 -17q0 -31 36 -67l69 -65q8 -7 8 -15q0 -9 -12.5 -16t-27.5 -9l-48 38q-74 60 -74 93q0 29 51 58z"/>
<glyph glyph-name="a" horiz-adv-x="497" unicode="a" d="M111 129q0 -41 34.5 -65.5t105.5 -24.5q33 0 63 6.5t44 12.5l14 7v222q-6 -23 -49 -36t-89.5 -20t-84.5 -32.5t-38 -69.5zM54 130q0 52 29.5 84.5t73 46t88.5 22.5t81.5 25.5t45.5 43.5q0 48 -27.5 74t-98.5 26q-72 0 -113 -28.5t-41 -76.5q-21 28 -21 60q0 44 48 71.5 t127 27.5q91 0 136 -41t45 -116v-354q-26 10 -61 10q-14 0 -57.5 -8.5t-65.5 -8.5q-91 0 -140 39t-49 103z"/>
<glyph glyph-name="b" horiz-adv-x="516" unicode="b" d="M252 40q80 0 112 30t32 85v184q0 59 -32.5 87t-87.5 28q-57 0 -101.5 -30t-44.5 -75v-280q58 -29 122 -29zM451 354v-214q0 -72 -56.5 -112t-136.5 -40q-36 0 -99.5 16.5t-83.5 19.5v716h1q54 0 54 -53v-139q0 -38 -3 -64.5t-5 -33.5l-3 -7q2 3 5.5 7t17 15t31 19t49 15 t67.5 7q68 0 115 -41.5t47 -110.5z"/>
<glyph glyph-name="c" horiz-adv-x="493" unicode="c" d="M424 152q25 -36 25 -63q0 -49 -55 -75t-130 -26q-91 0 -145 41t-54 114v208q0 73 50 114t139 41q78 0 125.5 -27t47.5 -72q0 -31 -22 -60q0 48 -40.5 76.5t-112.5 28.5q-132 0 -132 -112v-187q0 -51 36.5 -81t107.5 -30t115.5 28t44.5 82z"/>
<glyph glyph-name="d" horiz-adv-x="516" unicode="d" d="M386 64v285q0 45 -44 74.5t-101 29.5q-55 0 -88 -28.5t-33 -85.5v-184q0 -60 32.5 -87.5t112.5 -27.5q33 0 63 6t44 12zM386 548v192h1q54 0 54 -53v-692q-26 10 -53 10q-19 0 -67 -8.5t-74 -8.5q-85 0 -133.5 41t-48.5 111v214q0 69 47 110t116 41q39 0 71 -6.5 t49.5 -15.5t29 -18t15.5 -15l4 -7q-11 19 -11 105z"/>
<glyph glyph-name="e" horiz-adv-x="497" unicode="e" d="M120 336v-38l22 -8q56 -15 97 -15q143 0 143 86q0 93 -131 93q-75 0 -103 -29t-28 -89zM419 152q23 -32 23 -64q0 -48 -56.5 -74t-131.5 -26q-87 0 -138 41t-51 114v208q0 73 47.5 114t136.5 41q88 0 138 -39.5t50 -105.5q0 -64 -47 -102t-146 -38q-29 0 -60 6.5 t-48 12.5l-16 7v-89q0 -59 30 -87.5t104 -28.5q72 0 118.5 28.5t46.5 81.5z"/>
<glyph glyph-name="f" horiz-adv-x="319" unicode="f" d="M75 37v582q0 70 61 112.5t141 42.5q58 0 105 -25.5t47 -67.5q0 -22 -25 -52q0 38 -36.5 64.5t-93.5 26.5q-61 0 -102.5 -29.5t-41.5 -82.5v-126h194q0 -6 -1 -15t-10.5 -24t-25.5 -15h-157v-435q-6 0 -15 1t-24.5 12t-15.5 31z"/>
<glyph glyph-name="g" horiz-adv-x="482" unicode="g" d="M244 201q73 0 100.5 29t27.5 89v108q-52 26 -132 26q-71 0 -98 -24.5t-27 -79.5v-30q0 -60 28 -89t101 -29zM427 500v-196q0 -74 -47 -114.5t-136 -40.5q-48 0 -81.5 8.5t-42.5 17.5l-10 9q-10 -35 -10 -58q0 -45 26 -58t101 -13h33q33 0 54.5 -1.5t49.5 -8.5t44.5 -19.5 t28 -37t11.5 -59.5q0 -79 -50 -125t-151 -46q-82 0 -140 26t-58 73q0 34 23 66q0 -111 175 -111q83 0 113.5 32.5t30.5 89.5q0 23 -9.5 37t-30.5 20t-41 8t-53 2h-49q-38 0 -63 3t-50.5 13.5t-38 33t-12.5 58.5q0 30 10 50.5t34 49.5q-28 37 -28 95v60q0 72 48.5 106.5 t122.5 34.5q26 0 75.5 -9t64.5 -9q30 0 56 13z"/>
<glyph glyph-name="h" horiz-adv-x="526" unicode="h" d="M130 349v-356q-6 0 -15 1t-24.5 12t-15.5 31v704q8 0 17 -1.5t23.5 -14.5t14.5 -38v-139q0 -37 -3 -63.5t-5 -34.5l-3 -7q2 3 5 7t17 15t31.5 19t48.5 15t68 7q68 0 115 -42t47 -110v-361q-2 0 -6 0.5t-13.5 3t-16.5 6.5t-13 13t-6 21v302q0 59 -32.5 87t-87.5 28 q-57 0 -101.5 -30t-44.5 -75z"/>
<glyph glyph-name="i" horiz-adv-x="205" unicode="i" d="M71 619v56h52q11 0 11 -14v-55h-52q-11 0 -11 13zM75 37v464q8 0 18 -1.5t23.5 -12.5t13.5 -30v-464q-6 0 -15 1t-24.5 12t-15.5 31z"/>
<glyph glyph-name="j" horiz-adv-x="205" unicode="j" d="M71 619v56h52q11 0 11 -14v-55h-52q-11 0 -11 13zM130 457v-560q0 -57 -22.5 -96.5t-58.5 -39.5q-18 0 -36 16q31 0 46.5 47.5t15.5 104.5v572q6 0 15 -1t24.5 -12t15.5 -31z"/>
<glyph glyph-name="k" horiz-adv-x="460" unicode="k" d="M222 290q51 -9 91 -38t63 -67t38 -74.5t27 -70t19 -43.5q-17 -4 -26 -4q-23 0 -38.5 19t-24 47.5t-25 62.5t-38.5 63.5t-68 51t-110 24.5v-268q-6 0 -15 1t-24.5 12t-15.5 31v706q6 0 15 -1t24.5 -12t15.5 -31v-388h14q69 0 108.5 34t85.5 118q7 13 11 18t21 12.5t44 7.5 l10 -1q-5 -8 -23.5 -41t-34 -57t-38.5 -52t-50 -44t-56 -16z"/>
<glyph glyph-name="l" horiz-adv-x="205" unicode="l" d="M70 135v608q5 0 11 -1t17.5 -4.5t19 -13.5t7.5 -25v-538q0 -64 15.5 -106.5t49.5 -42.5q-13 -19 -39 -19q-40 0 -60.5 39t-20.5 103z"/>
<glyph glyph-name="m" horiz-adv-x="847" unicode="m" d="M396 36v311q0 56 -32 80.5t-101 24.5q-37 0 -70.5 -6t-48.5 -12l-14 -6v-435q-2 0 -6 0.5t-13.5 2.5t-16.5 6t-13 13t-6 21v462q25 -14 45 -14q25 0 76 11t81 11q33 0 60.5 -6t43 -15t26.5 -18t15 -15l4 -6q64 59 174 59q69 0 120.5 -36t51.5 -108v-368q-2 0 -6 0.5 t-13.5 3t-16.5 6.5t-13 12.5t-6 20.5v314q0 53 -32.5 77t-101.5 24q-51 0 -91.5 -24t-40.5 -63v-371q-2 0 -6 0.5t-13.5 2.5t-16.5 6t-13 13t-6 21z"/>
<glyph glyph-name="n" horiz-adv-x="526" unicode="n" d="M396 37v310q0 52 -31 78.5t-102 26.5q-37 0 -70.5 -6t-48.5 -12l-14 -6v-435q-6 0 -15 1t-24.5 12t-15.5 31v461q28 -14 45 -14q24 0 74 11t83 11q74 0 124 -33t50 -111v-369q-6 0 -15 1t-24.5 12t-15.5 31z"/>
<glyph glyph-name="o" horiz-adv-x="537" unicode="o" d="M417 158v178q0 61 -30.5 89.5t-117.5 28.5t-118 -28.5t-31 -89.5v-178q0 -61 30.5 -90t118.5 -29q87 0 117.5 29t30.5 90zM472 351v-208q0 -155 -203 -155q-204 0 -204 155v208q0 74 51 114.5t153 40.5t152.5 -40.5t50.5 -114.5z"/>
<glyph glyph-name="p" horiz-adv-x="516" unicode="p" d="M130 429v-285q0 -45 44.5 -75t101.5 -30q54 0 87 29t33 86v184q0 61 -31.5 88.5t-112.5 27.5q-31 0 -61.5 -6t-45.5 -12zM130 -56v-125v-66q-55 0 -55 53v692q25 -12 50 -12q12 0 53.5 10t76.5 10q97 0 146.5 -40t49.5 -113v-214q0 -73 -51 -112t-122 -39q-34 0 -63 6.5 t-46 15.5t-29 18t-16 16l-5 6q11 -19 11 -106z"/>
<glyph glyph-name="q" horiz-adv-x="516" unicode="q" d="M386 144v285q-52 25 -122 25q-81 0 -112.5 -27.5t-31.5 -88.5v-184q0 -57 33 -86t87 -29q57 0 101.5 30t44.5 75zM386 -194v138q0 71 9 101q-7 -10 -22.5 -21.5t-53.5 -23.5t-84 -12q-71 0 -120.5 39.5t-49.5 111.5v214q0 73 49.5 113t146.5 40q35 0 76.5 -10t53.5 -10 q25 0 50 12v-745q-55 0 -55 53z"/>
<glyph glyph-name="r" horiz-adv-x="361" unicode="r" d="M342 385q-3 62 -99 62q-74 0 -113 -21v-433q-6 0 -15 1t-24.5 12t-15.5 31v461q28 -14 48 -14q19 0 67 11t75 11q44 0 68 -17t24 -49q0 -24 -15 -55z"/>
<glyph glyph-name="s" horiz-adv-x="467" unicode="s" d="M367 140q0 44 -32.5 63t-79.5 23t-94 9.5t-81 34t-35 84.5q0 152 184 152q75 0 125 -23t50 -73q0 -30 -24 -74q1 5 1 16q0 102 -152 102q-70 0 -99.5 -24t-29.5 -71q0 -29 18 -45.5t46 -22t62.5 -8t69 -8.5t62.5 -19t46 -43.5t18 -77.5q0 -67 -50 -107t-143 -40 q-49 0 -87 8t-66.5 31.5t-28.5 61.5q0 26 15 62q0 -50 41.5 -80.5t125.5 -30.5q138 0 138 100z"/>
<glyph glyph-name="t" horiz-adv-x="400" unicode="t" d="M75 138v487q2 0 6 -0.5t13.5 -3t16.5 -6.5t13 -13t6 -21v-99h209q0 -6 -1 -15t-10.5 -24t-25.5 -15h-172v-265q0 -57 31 -89t90 -32q50 0 85.5 28.5t35.5 73.5q18 -33 18 -60q0 -46 -41 -71t-99 -25q-75 0 -125 39.5t-50 110.5z"/>
<glyph glyph-name="u" horiz-adv-x="526" unicode="u" d="M130 457v-305q0 -22 4 -38.5t16.5 -35t41.5 -29t72 -10.5q37 0 70 6.5t48 12.5l14 6v437q6 0 15 -1t24.5 -12t15.5 -31v-462q-23 10 -54 10q-17 0 -64.5 -8.5t-72.5 -8.5q-46 0 -85 11.5t-69.5 45.5t-30.5 87v369q2 0 6 -0.5t13.5 -3t16.5 -6.5t13 -13t6 -21z"/>
<glyph glyph-name="v" horiz-adv-x="474" unicode="v" d="M439 501l-19 -194q-6 -64 -27 -120.5t-47 -92t-51 -62t-41 -37.5l-17 -11q-6 4 -17 12t-39.5 36.5t-52 62.5t-45.5 91t-28 121l-20 194q6 0 15 -1t25 -12.5t18 -31.5l20 -173q4 -38 18.5 -77t32 -66.5t34.5 -50t28 -33.5l11 -11l11.5 11.5t27.5 32t35.5 50.5t31 65.5 t19.5 78.5l20 173q2 20 16.5 31t27.5 13z"/>
<glyph glyph-name="w" horiz-adv-x="766" unicode="w" d="M527 45q4 4 12 11t27.5 30.5t35.5 49t31.5 66t20.5 81.5l20 173q2 20 16.5 31t27.5 13l13 1l-19 -194q-6 -64 -27 -120.5t-47 -92t-51 -61.5t-41 -37l-17 -12q-10 6 -27 17.5t-57 52.5t-64 87q-20 -40 -56 -79t-62 -58l-26 -20q-6 4 -17 12t-39.5 36.5t-52 62.5t-45.5 91 t-28 121l-20 194q6 0 15 -1t25 -12.5t18 -31.5l20 -173q7 -60 39 -119.5t60 -89.5l28 -29q3 3 9 8t22.5 21t31 33t30.5 42.5t26 50.5q-20 69 -20 168q0 127 71 129q-15 -73 -15 -148q0 -96 32 -177.5t100 -126.5z"/>
<glyph glyph-name="x" horiz-adv-x="423" unicode="x" d="M318 38l-106 174l-106 -174q-27 -45 -77 -45l-13 1q2 4 14.5 24t18.5 31l70 118q11 18 25 38.5t23 31.5l9 11q-30 33 -57 79l-67 113q-9 15 -22 35.5t-14 23.5q3 2 13 2q46 0 75 -46l108 -173l108 173q29 46 75 46l13 -2q-1 -3 -14 -23.5t-22 -35.5l-67 -113 q-12 -20 -26 -40t-23 -29l-8 -10q33 -40 57 -81l70 -118q6 -11 18.5 -31t14.5 -24q-3 -1 -13 -1q-50 0 -77 45z"/>
<glyph glyph-name="y" horiz-adv-x="484" unicode="y" d="M248 79q5 3 12.5 9.5t27.5 27.5t36 43t30.5 56t18.5 67l18 169q2 19 13.5 30t20 13.5t24.5 4.5l-19 -193q-15 -162 -143 -260l-39 -30q-31 -24 -41.5 -32.5t-31.5 -28t-28 -32.5t-14 -33.5t-7 -43.5q0 -35 23 -89q-8 -2 -15 -2q-26 0 -45.5 21t-19.5 74q0 104 142 199 q-47 29 -92 96t-54 161l-20 194q6 0 15 -1t25 -12t18 -31l20 -174q4 -35 18.5 -68.5t32 -57t34.5 -41.5t28 -27z"/>
<glyph glyph-name="z" horiz-adv-x="430" unicode="z" d="M323 442h-273q0 6 1 14.5t10.5 23t26.5 14.5h304q-3 -10 -6.5 -32.5t-6.5 -32.5q-18 -57 -64.5 -117.5t-91 -102t-81.5 -85.5t-41 -73h299v-5.5t-2 -12.5t-5.5 -15.5t-11.5 -12t-18 -5.5h-325v22q0 44 23.5 86.5t60.5 79.5t75.5 74t74 84.5t51.5 95.5z"/>
<glyph glyph-name="braceleft" horiz-adv-x="238" unicode="{" d="M94 272q5 -4 13 -11t21 -32t13 -52v-239q0 -105 72 -105q-25 -21 -54 -21q-32 0 -54 26t-22 71v256q0 24 -6 43.5t-13.5 30.5t-17 19t-14 10.5t-7.5 3.5q4 1 8.5 3.5t14 11t16.5 19.5t13 30.5t6 42.5v256q0 45 22 71t54 26q29 0 54 -21q-72 0 -72 -105v-239 q0 -27 -11.5 -51t-23.5 -34z"/>
<glyph glyph-name="bar" horiz-adv-x="225" unicode="|" d="M85 -198v942q6 0 15 -1t24.5 -12t15.5 -31v-942q-6 0 -15 1t-24.5 12t-15.5 31z"/>
<glyph glyph-name="braceright" horiz-adv-x="238" unicode="}" d="M144 272q-5 4 -13 11t-21 32t-13 52v239q0 105 -72 105q26 21 54 21q32 0 54 -26t22 -71v-256q0 -23 6 -42.5t13 -30.5t16.5 -19.5t14 -11t8.5 -3.5q-3 -1 -7.5 -3.5t-14 -10.5t-17 -19t-13.5 -30.5t-6 -43.5v-256q0 -45 -22 -71t-54 -26q-29 0 -54 21q72 0 72 105v239 q0 27 12 51t23 34z"/>
<glyph glyph-name="asciitilde" horiz-adv-x="624" unicode="~" d="M48 318q-3 14 -3 22q0 56 81 56q37 0 187 -26t189 -26q20 0 38.5 6t27.5 12l8 5q3 -14 3 -24q0 -22 -18.5 -38t-63.5 -16q-37 0 -186.5 26t-188.5 26q-24 0 -42.5 -5.5t-25.5 -11.5z"/>
<glyph glyph-name="uni00A0" horiz-adv-x="280" unicode=" "/>
<glyph glyph-name="exclamdown" horiz-adv-x="249" unicode="¡" d="M174 627h-49q-11 0 -11 14v52h49q11 0 11 -14v-52zM116 33v496q4 0 10.5 -1t18 -4.5t19 -13.5t7.5 -24v-496q-2 0 -6 0.5t-13.5 2.5t-16.5 6t-13 13t-6 21z"/>
<glyph glyph-name="cent" horiz-adv-x="503" unicode="¢" d="M120 153q0 -98 108 -110v408q-63 -4 -85.5 -32.5t-22.5 -78.5v-187zM228 -17v7q-77 7 -120 47t-43 106v208q0 69 42 109.5t121 44.5v51q6 0 15 -1t24.5 -12t15.5 -31v-8q65 -5 104.5 -31.5t39.5 -65.5q0 -31 -22 -60q0 41 -32.5 68.5t-89.5 34.5v-407q63 5 102 32.5 t39 76.5q25 -36 25 -63q0 -45 -48.5 -70.5t-117.5 -29.5v-50q-6 0 -15 1t-24.5 12t-15.5 31z"/>
<glyph glyph-name="sterling" horiz-adv-x="600" unicode="£" d="M443 608q-3 82 -153 82q-65 0 -100.5 -30t-35.5 -86v-133h186q0 -6 -1 -15t-10.5 -24t-25.5 -15h-149v-258l-6 -72q99 -33 217 -33q29 0 50.5 3.5t46.5 14.5t42 36.5t24 64.5q19 -38 19 -70q0 -53 -49.5 -80.5t-127.5 -27.5q-55 0 -111 10t-108.5 25t-65.5 18 q11 46 11 83v488q0 71 54.5 113t139.5 42q76 0 123 -20t47 -58q0 -30 -17 -58z"/>
<glyph glyph-name="yen" horiz-adv-x="600" unicode="¥" d="M158 327h85q-44 48 -88 128.5t-77.5 155t-42.5 88.5q0 1 13 1q45 0 76 -54q7 -11 36 -74.5t64 -123.5t73 -96q38 36 73 96t64 123.5t36 74.5q31 54 76 54l13 -1q-10 -15 -43 -88.5t-77 -154.5t-88 -129h111q1 -3 1 -14q0 -40 -29 -40h-107v-96h135q1 -3 1 -14 q0 -40 -29 -40h-107v-133q-7 0 -16.5 1t-26 12.5t-16.5 31.5v88h-137q-1 4 -1 16q0 38 28 38h110v96h-137q-1 4 -1 16q0 38 28 38z"/>
<glyph glyph-name="brokenbar" horiz-adv-x="225" unicode="¦" d="M85 -198v367q6 0 15 -1t24.5 -12t15.5 -31v-367q-6 0 -15 1t-24.5 12t-15.5 31zM85 377v367q2 0 6 -0.5t13.5 -2.5t16.5 -6t13 -13t6 -21v-368q-6 0 -15 1t-24.5 12t-15.5 31z"/>
<glyph glyph-name="section" horiz-adv-x="595" unicode="§" d="M84 -110q0 28 9 51q33 -115 203 -115q58 0 94.5 10t53 31.5t21.5 43t5 54.5q0 47 -28.5 75t-71 36.5t-92 20.5t-92 26t-71 54t-28.5 103q0 41 33 96q-2 -16 -2 -32q0 -62 22.5 -101t59 -55.5t80 -26l87 -19t80 -26.5t59 -56t22.5 -101q0 -189 -232 -189q-212 0 -212 120z M515 624q0 -28 -9 -51q-33 115 -203 115q-58 0 -94.5 -10t-53 -31.5t-21.5 -43t-5 -54.5q0 -47 28.5 -75t71 -36.5t92 -20.5t92 -26t71 -54t28.5 -103q0 -41 -33 -96q2 16 2 32q0 62 -22.5 101t-59 55.5t-80 26l-87 19t-80 26.5t-59 56t-22.5 101q0 189 232 189 q212 0 212 -120z"/>
<glyph glyph-name="dieresis" horiz-adv-x="489" unicode="¨" d="M307 619v56h52q11 0 11 -14v-55h-52q-11 0 -11 13zM174 619v56h52q11 0 11 -14v-55h-52q-11 0 -11 13z"/>
<glyph glyph-name="copyright" horiz-adv-x="799" unicode="©" d="M556 287q24 -35 24 -59q0 -46 -53.5 -70.5t-124.5 -24.5q-85 0 -133.5 38t-48.5 107v140q0 69 44.5 107t127.5 38q74 0 120.5 -25.5t46.5 -67.5q0 -29 -21 -56q0 44 -40 71t-108 27q-69 0 -93.5 -26.5t-24.5 -77.5v-120q0 -104 130 -104q67 0 110.5 26.5t43.5 76.5z M75 213v268q0 104 87.5 163.5t237.5 59.5q149 0 236.5 -59.5t87.5 -163.5v-268q0 -104 -87.5 -163.5t-236.5 -59.5q-150 0 -237.5 59.5t-87.5 163.5zM672 256v182q0 51 -11.5 88t-41 66.5t-84.5 44.5t-137 15q-155 0 -212.5 -54t-57.5 -160v-182q0 -107 57.5 -161.5 t212.5 -54.5q82 0 137 15t84.5 45t41 67t11.5 89z"/>
<glyph glyph-name="ordfeminine" horiz-adv-x="447" unicode="ª" d="M77 421q0 37 20.5 60.5t51.5 35t63.5 19.5t62 21t41.5 32q-2 68 -90 68q-110 0 -119 -73q-17 26 -17 46q0 35 39.5 54.5t96.5 19.5q71 0 109 -31t38 -87v-267q-24 5 -52 5q-19 0 -52.5 -5t-51.5 -5q-58 0 -99 26t-41 81zM318 376v152q-13 -13 -45.5 -23.5t-62 -17 t-53 -23t-23.5 -42.5q0 -63 93 -63q23 0 45.5 4.5t33.5 8.5z"/>
<glyph glyph-name="guillemotleft" horiz-adv-x="599" unicode="«" d="M122 248l203 -203q-17 -26 -36 -26q-16 0 -52 36l-148 148q-24 24 -24 44q0 21 25 46l199 199q29 -18 29 -38q0 -4 -2.5 -9t-8.5 -12t-9.5 -10.5l-13 -13l-11.5 -11.5zM311 248l203 -203q-17 -26 -36 -26q-16 0 -52 36l-148 148q-24 24 -24 44q0 21 25 46l199 199 q29 -18 29 -38q0 -4 -2.5 -9t-8.5 -12t-9.5 -10.5l-13 -13l-11.5 -11.5z"/>
<glyph glyph-name="logicalnot" horiz-adv-x="638" unicode="¬" d="M498 43v283l-435 1q-26 0 -26 36l2 17h455q34 0 46.5 -14t12.5 -47v-246q0 -32 -36 -32z"/>
<glyph glyph-name="uni00AD" horiz-adv-x="485" unicode="­" d="M104 284h304q1 -3 1 -14q0 -40 -29 -40h-303q-1 4 -1 16q0 38 28 38z"/>
<glyph glyph-name="registered" horiz-adv-x="500" unicode="®" d="M51 414v153q0 64 54 100.5t145 36.5t145 -36.5t54 -100.5v-153q0 -64 -54 -101t-145 -37t-145 37t-54 101zM402 430v118q0 56 -34.5 86.5t-120.5 30.5q-83 0 -116.5 -30.5t-33.5 -86.5v-118q0 -56 33.5 -85.5t116.5 -29.5q86 0 120.5 29.5t34.5 85.5zM232 580h-22v-93h22 q54 0 54 48q0 27 -13 36t-41 9zM160 389v230h72q105 0 105 -81q0 -28 -14 -49t-39 -27q46 -26 61 -94q-21 -5 -31 -5q-18 0 -28 18q-18 59 -76 67v-86q-50 3 -50 27z"/>
<glyph glyph-name="macron" horiz-adv-x="370" unicode="¯" d="M77 655h241q1 -5 1 -17q0 -34 -26 -34h-240q-3 8 -3 17q0 34 27 34z"/>
<glyph glyph-name="degree" horiz-adv-x="369" unicode="°" d="M265 582v61q0 28 -20 45.5t-61 17.5q-80 0 -80 -63v-61q0 -63 80 -63q81 0 81 63zM314 665v-106q0 -41 -35 -62.5t-95 -21.5t-94.5 22t-34.5 62v106q0 39 35 62t94 23t94.5 -23t35.5 -62z"/>
<glyph glyph-name="plusminus" horiz-adv-x="485" unicode="±" d="M105 88h303q1 -3 1 -14q0 -40 -29 -40h-302q-1 4 -1 16q0 38 28 38zM214 177v102h-136q-3 7 -3 19q0 36 27 36h112v135q4 1 11 1q18 0 29.5 -8t11.5 -23v-105h138q1 -5 1 -17q0 -38 -26 -38h-113v-132q-2 0 -4 -0.5t-4 -0.5q-17 0 -30.5 8t-13.5 23z"/>
<glyph glyph-name="twosuperior" horiz-adv-x="385" unicode="²" d="M65 348v47q0 24 8 42.5t27 32.5t31.5 21t38.5 20q24 11 33.5 16.5t25.5 16.5t22 23.5t6 28.5v8q0 60 -69 60q-91 0 -102 -59q-16 20 -16 38q0 32 35 47.5t83 15.5q55 0 89.5 -25.5t34.5 -67.5v-20q0 -25 -8 -44t-27 -33t-32 -21t-39 -19q-31 -14 -44.5 -21t-28.5 -24.5 t-15 -39.5h153q35 0 47 5q0 -5 -1 -13t-9 -21.5t-21 -13.5h-222z"/>
<glyph glyph-name="threesuperior" horiz-adv-x="383" unicode="³" d="M317 452v-15q0 -42 -35.5 -68.5t-93.5 -26.5q-50 0 -86.5 16.5t-36.5 48.5q0 19 14 37q15 -58 109 -58q74 0 74 59q0 57 -54 63q-7 1 -11.5 2.5t-10 10t-5.5 23.5v4h11q36 1 50.5 14.5t14.5 42.5q0 58 -69 58q-88 0 -104 -59q-14 18 -14 38q0 30 35.5 47t82.5 17 q55 0 89.5 -25.5t34.5 -67.5v-13q0 -50 -43 -72q48 -20 48 -76z"/>
<glyph glyph-name="acute" horiz-adv-x="489" unicode="´" d="M266 750q51 -29 51 -58q0 -33 -74 -93l-48 -38q-15 2 -27.5 9t-12.5 16q0 8 8 15l69 65q36 36 36 67q0 11 -2 17z"/>
<glyph glyph-name="mu" horiz-adv-x="526" unicode="µ" d="M130 457v-305q0 -22 4 -38.5t16.5 -35t41.5 -29t72 -10.5q37 0 70 6.5t48 12.5l14 6v437q6 0 15 -1t24.5 -12t15.5 -31v-462q-23 10 -54 10q-17 0 -64.5 -8.5t-72.5 -8.5q-83 0 -134 36q6 -32 6 -64v-208q-2 0 -6 0.5t-14 2.5t-17.5 6t-13.5 13t-6 21v706q2 0 6 -0.5 t13.5 -3t16.5 -6.5t13 -13t6 -21z"/>
<glyph glyph-name="mu" horiz-adv-x="526" unicode="μ" d="M130 457v-305q0 -22 4 -38.5t16.5 -35t41.5 -29t72 -10.5q37 0 70 6.5t48 12.5l14 6v437q6 0 15 -1t24.5 -12t15.5 -31v-462q-23 10 -54 10q-17 0 -64.5 -8.5t-72.5 -8.5q-83 0 -134 36q6 -32 6 -64v-208q-2 0 -6 0.5t-14 2.5t-17.5 6t-13.5 13t-6 21v706q2 0 6 -0.5 t13.5 -3t16.5 -6.5t13 -13t6 -21z"/>
<glyph glyph-name="paragraph" horiz-adv-x="576" unicode="¶" d="M474 526v-607q0 -34 -2 -54t-10 -41.5t-26 -31t-47 -10.5q3 1 8 7t13.5 44t8.5 99v666q2 -1 6 -2t13.5 -7t16.5 -13.5t13 -20.5t6 -29zM440 640h-76q4 -19 4 -57v-690q0 -55 -18.5 -95t-52.5 -40q-31 0 -51 16q32 0 49.5 47.5t17.5 103.5v226l4 50q-38 -16 -87 -16 q-65 0 -110.5 42.5t-45.5 109.5v200q0 74 47 115t136 41h147q58 0 104.5 17t46.5 53q16 -21 16 -46q0 -36 -40.5 -56.5t-90.5 -20.5z"/>
<glyph glyph-name="periodcentered" horiz-adv-x="193" unicode="·" d="M64 309h54q13 0 13 -15v-58h-54q-13 0 -13 16v57z"/>
<glyph glyph-name="cedilla" horiz-adv-x="833" unicode="¸" d="M242 -111q0 3 3 15l32 113q8 0 22 -8.5t14 -20.5q0 -1 -1 -4l-11 -43q46 0 75 -23t29 -68q0 -40 -29 -63t-71 -23q-65 0 -65 50q24 -10 47 -10q66 0 66 48q0 23 -18.5 34.5t-44.5 11.5q-12 0 -24 -2t-18 -4z"/>
<glyph glyph-name="onesuperior" horiz-adv-x="302" unicode="¹" d="M107 701q55 0 73 6v-318h72q1 -4 1 -10q0 -30 -24 -30h-171q-1 6 -1 13q0 27 23 27h47v268h-17q-43 0 -51 -33q-16 19 -16 36q0 41 64 41z"/>
<glyph glyph-name="ordmasculine" horiz-adv-x="474" unicode="º" d="M344 444v130q0 45 -21.5 66t-83.5 21t-84 -21t-22 -66v-130q0 -45 22 -65.5t84 -20.5t83.5 20.5t21.5 65.5zM401 586v-153q0 -57 -40.5 -88t-121.5 -31q-162 0 -162 119v153q0 118 162 118t162 -118z"/>
<glyph glyph-name="guillemotright" horiz-adv-x="599" unicode="»" d="M254 45l203 203l-151 150l-11.5 11.5l-13 13t-9.5 10.5t-8.5 12t-2.5 9q0 20 29 38l199 -199q25 -25 25 -46q0 -20 -24 -44l-148 -148q-36 -36 -52 -36q-19 0 -36 26zM65 45l203 203l-151 150l-11.5 11.5l-13 13t-9.5 10.5t-8.5 12t-2.5 9q0 20 29 38l199 -199 q25 -25 25 -46q0 -20 -24 -44l-148 -148q-36 -36 -52 -36q-19 0 -36 26z"/>
<glyph glyph-name="onequarter" horiz-adv-x="673" unicode="¼" d="M107 700q55 0 73 6v-318h72q1 -4 1 -10q0 -30 -24 -30h-171q-1 6 -1 13q0 27 23 27h47v268h-17q-43 0 -51 -33q-16 19 -16 36q0 41 64 41zM177 200l352 353q19 -26 19 -42q0 -14 -12 -26l-353 -352q-18 24 -18 41q0 14 12 26zM537 294q-74 -78 -105 -148h105v148z M537 107h-168q4 56 68.5 140t102.5 116q50 -3 50 -27v-190h40q-5 -39 -31 -39h-9v-106q-8 0 -19 1.5t-22.5 8.5t-11.5 18v78z"/>
<glyph glyph-name="onehalf" horiz-adv-x="742" unicode="½" d="M448 1v47q0 24 8 42.5t27 32.5t31.5 21t38.5 20q24 11 33.5 16.5t25.5 16.5t22 23.5t6 28.5v8q0 60 -69 60q-91 0 -102 -59q-16 20 -16 38q0 32 35 47.5t83 15.5q55 0 89.5 -25.5t34.5 -67.5v-20q0 -25 -8 -44t-27 -33t-32 -21t-39 -19q-31 -14 -44.5 -21t-28.5 -24.5 t-15 -39.5h153q34 0 47 5q0 -5 -1 -13t-9 -21.5t-21 -13.5h-222zM107 701q55 0 73 6v-318h72q1 -4 1 -10q0 -30 -24 -30h-171q-1 6 -1 13q0 27 23 27h47v268h-17q-43 0 -51 -33q-16 19 -16 36q0 41 64 41zM176 200l352 353q19 -26 19 -42q0 -14 -12 -26l-353 -352 q-18 24 -18 41q0 14 12 26z"/>
<glyph glyph-name="threequarters" horiz-adv-x="714" unicode="¾" d="M317 451v-15q0 -42 -35.5 -68.5t-93.5 -26.5q-50 0 -86.5 16.5t-36.5 48.5q0 19 14 37q15 -58 109 -58q74 0 74 59q0 57 -54 63q-7 1 -11.5 2.5t-10 10t-5.5 23.5v4h11q36 1 50.5 14.5t14.5 42.5q0 58 -69 58q-88 0 -104 -59q-14 18 -14 38q0 30 35.5 47t82.5 17 q55 0 89.5 -25.5t34.5 -67.5v-13q0 -51 -43 -72q48 -20 48 -76zM218 200l352 353q19 -26 19 -42q0 -14 -12 -26l-353 -352q-18 24 -18 41q0 14 12 26zM578 294q-74 -78 -105 -148h105v148zM578 107h-168q4 56 68.5 140t102.5 116q50 -3 50 -27v-190h40q-5 -39 -31 -39h-9 v-106q-8 0 -19 1.5t-22.5 8.5t-11.5 18v78z"/>
<glyph glyph-name="questiondown" horiz-adv-x="515" unicode="¿" d="M358 627h-49q-11 0 -11 14v52h49q11 0 11 -14v-52zM297 43q76 0 117.5 27t41.5 77q14 -31 14 -62q0 -48 -52.5 -72.5t-120.5 -24.5q-100 0 -161.5 43t-61.5 121v25q0 47 23.5 82.5t57.5 58.5t68 44.5t57.5 53t23.5 71.5v48q2 0 5.5 -0.5t12 -3t15 -6.5t12 -13.5 t5.5 -22.5v-22q0 -42 -23 -75t-55.5 -55.5t-65 -44t-55.5 -52.5t-23 -70q0 -60 41.5 -93.5t123.5 -33.5z"/>
<glyph glyph-name="Agrave" horiz-adv-x="602" unicode="À" d="M159 287h284l-38 126q-20 65 -46 118.5t-42 74.5l-16 21q-7 -8 -18 -23t-38.5 -70.5t-47.5 -120.5zM479 162l-20 70h-316l-20 -70q-2 -7 -7 -25.5t-7.5 -27t-8 -25t-10 -25t-10.5 -21t-13 -19.5t-15.5 -14t-19 -10t-22.5 -3q-7 0 -10 1q5 9 13 28t18.5 50.5t20 60.5 t23.5 75t23 75.5t25 81.5t23 75q59 191 155 266q96 -75 155 -266q7 -23 23 -75t25 -81.5t23 -75.5t23.5 -75t20 -60.5t18.5 -50.5t13 -28q-3 -1 -10 -1q-12 0 -22.5 3t-19 10t-15.5 14t-13 19.5t-10.5 21t-10 25t-8 25t-7.5 27t-7 25.5zM228 934q-2 -6 -2 -17q0 -31 36 -67 l69 -65q8 -7 8 -15q0 -9 -12.5 -16t-27.5 -9l-48 38q-74 60 -74 93q0 29 51 58z"/>
<glyph glyph-name="Aacute" horiz-adv-x="602" unicode="Á" d="M374 934q51 -29 51 -58q0 -33 -74 -93l-48 -38q-15 2 -27.5 9t-12.5 16q0 8 8 15l69 65q36 36 36 67q0 11 -2 17zM159 287h284l-38 126q-20 65 -46 118.5t-42 74.5l-16 21q-7 -8 -18 -23t-38.5 -70.5t-47.5 -120.5zM479 162l-20 70h-316l-20 -70q-2 -7 -7 -25.5t-7.5 -27 t-8 -25t-10 -25t-10.5 -21t-13 -19.5t-15.5 -14t-19 -10t-22.5 -3q-7 0 -10 1q5 9 13 28t18.5 50.5t20 60.5t23.5 75t23 75.5t25 81.5t23 75q59 191 155 266q96 -75 155 -266q7 -23 23 -75t25 -81.5t23 -75.5t23.5 -75t20 -60.5t18.5 -50.5t13 -28q-3 -1 -10 -1 q-12 0 -22.5 3t-19 10t-15.5 14t-13 19.5t-10.5 21t-10 25t-8 25t-7.5 27t-7 25.5z"/>
<glyph glyph-name="Acircumflex" horiz-adv-x="602" unicode="Â" d="M159 287h284l-38 126q-20 65 -46 118.5t-42 74.5l-16 21q-7 -8 -18 -23t-38.5 -70.5t-47.5 -120.5zM479 162l-20 70h-316l-20 -70q-2 -7 -7 -25.5t-7.5 -27t-8 -25t-10 -25t-10.5 -21t-13 -19.5t-15.5 -14t-19 -10t-22.5 -3q-7 0 -10 1q5 9 13 28t18.5 50.5t20 60.5 t23.5 75t23 75.5t25 81.5t23 75q59 191 155 266q96 -75 155 -266q7 -23 23 -75t25 -81.5t23 -75.5t23.5 -75t20 -60.5t18.5 -50.5t13 -28q-3 -1 -10 -1q-12 0 -22.5 3t-19 10t-15.5 14t-13 19.5t-10.5 21t-10 25t-8 25t-7.5 27t-7 25.5zM220 870l81 67l81 -67q37 -30 37 -64 q0 -36 -45 -60q6 12 6 24q0 18 -20 44t-40 43l-19 17q-9 -7 -22 -18.5t-35 -39.5t-22 -46q0 -12 6 -24q-45 24 -45 60q0 34 37 64z"/>
<glyph glyph-name="Atilde" horiz-adv-x="602" unicode="Ã" d="M172 780q-2 18 -2 26q0 55 56 55q26 0 76 -23.5t80 -23.5t48 27q1 -8 1 -22q0 -31 -13 -45.5t-43 -14.5q-27 0 -75.5 23t-77.5 23q-34 0 -50 -25zM159 287h284l-38 126q-20 65 -46 118.5t-42 74.5l-16 21q-7 -8 -18 -23t-38.5 -70.5t-47.5 -120.5zM479 162l-20 70h-316 l-20 -70q-2 -7 -7 -25.5t-7.5 -27t-8 -25t-10 -25t-10.5 -21t-13 -19.5t-15.5 -14t-19 -10t-22.5 -3q-7 0 -10 1q5 9 13 28t18.5 50.5t20 60.5t23.5 75t23 75.5t25 81.5t23 75q59 191 155 266q96 -75 155 -266q7 -23 23 -75t25 -81.5t23 -75.5t23.5 -75t20 -60.5t18.5 -50.5 t13 -28q-3 -1 -10 -1q-12 0 -22.5 3t-19 10t-15.5 14t-13 19.5t-10.5 21t-10 25t-8 25t-7.5 27t-7 25.5z"/>
<glyph glyph-name="Adieresis" horiz-adv-x="602" unicode="Ä" d="M159 287h284l-38 126q-20 65 -46 118.5t-42 74.5l-16 21q-7 -8 -18 -23t-38.5 -70.5t-47.5 -120.5zM479 162l-20 70h-316l-20 -70q-2 -7 -7 -25.5t-7.5 -27t-8 -25t-10 -25t-10.5 -21t-13 -19.5t-15.5 -14t-19 -10t-22.5 -3q-7 0 -10 1q5 9 13 28t18.5 50.5t20 60.5 t23.5 75t23 75.5t25 81.5t23 75q59 191 155 266q96 -75 155 -266q7 -23 23 -75t25 -81.5t23 -75.5t23.5 -75t20 -60.5t18.5 -50.5t13 -28q-3 -1 -10 -1q-12 0 -22.5 3t-19 10t-15.5 14t-13 19.5t-10.5 21t-10 25t-8 25t-7.5 27t-7 25.5zM336 803v56h52q11 0 11 -14v-55h-52 q-11 0 -11 13zM203 803v56h52q11 0 11 -14v-55h-52q-11 0 -11 13z"/>
<glyph glyph-name="Aring" horiz-adv-x="602" unicode="Å" d="M347 815v39q0 37 -47 37q-27 0 -37 -9.5t-10 -27.5v-39q0 -19 10 -28t37 -9q47 0 47 37zM383 868v-68q0 -26 -22.5 -40t-60.5 -14t-60.5 14t-22.5 40v68q0 25 22.5 40t60.5 15t60.5 -15t22.5 -40zM159 287h284l-38 126q-20 65 -46 118.5t-42 74.5l-16 21q-7 -8 -18 -23 t-38.5 -70.5t-47.5 -120.5zM479 162l-20 70h-316l-20 -70q-2 -7 -7 -25.5t-7.5 -27t-8 -25t-10 -25t-10.5 -21t-13 -19.5t-15.5 -14t-19 -10t-22.5 -3q-7 0 -10 1q5 9 13 28t18.5 50.5t20 60.5t23.5 75t23 75.5t25 81.5t23 75q59 191 155 266q96 -75 155 -266q7 -23 23 -75 t25 -81.5t23 -75.5t23.5 -75t20 -60.5t18.5 -50.5t13 -28q-3 -1 -10 -1q-12 0 -22.5 3t-19 10t-15.5 14t-13 19.5t-10.5 21t-10 25t-8 25t-7.5 27t-7 25.5z"/>
<glyph glyph-name="AE" horiz-adv-x="754" unicode="Æ" d="M198 412l-37 -125h177v351q-42 -24 -75 -70.5t-65 -155.5zM321 694h383v-5.5t-2 -13t-5.5 -16.5t-11.5 -13t-18 -6h-271v-231h195q26 0 44.5 3.5t23.5 7.5l5 3q0 -13 -4.5 -27t-20.5 -27.5t-42 -13.5h-201v-301h308q0 -7 -1 -16t-10 -23.5t-26 -14.5h-257q-8 0 -20 1 t-32 12t-20 31v189h-193l-25 -82q-2 -8 -9 -32t-10.5 -33.5l-10.5 -28.5t-13.5 -27t-16.5 -19t-22.5 -15t-27.5 -4q-1 0 -4.5 0.5t-5.5 0.5q18 25 66 182l81 260q65 210 174 259z"/>
<glyph glyph-name="Ccedilla" horiz-adv-x="660" unicode="Ç" d="M292 -111q0 3 3 15l24 85q-109 4 -176.5 58t-67.5 166v268q0 116 76 170.5t193 54.5q41 0 78 -4t80 -14t68.5 -33.5t25.5 -57.5q0 -30 -18 -63q0 34 -24.5 58.5t-63.5 36t-75 16.5t-71 5q-211 0 -211 -183v-239q0 -184 206 -184q33 0 65 3.5t76.5 14.5t71.5 38.5t26 67.5 q16 -35 16 -63q0 -109 -232 -116v-5l-11 -43q46 0 75 -23t29 -68q0 -40 -29 -63t-71 -23q-65 0 -65 50q24 -10 47 -10q66 0 66 48q0 23 -18.5 34.5t-44.5 11.5q-12 0 -24 -2t-18 -4z"/>
<glyph glyph-name="Egrave" horiz-adv-x="551" unicode="È" d="M394 355h-251v-301h358q0 -7 -1 -16t-10 -23.5t-26 -14.5h-307q-8 0 -20 1t-32 12t-20 31v650h416v-5.5t-2 -13t-5.5 -16.5t-11.5 -13t-18 -6h-321v-231h245q26 0 44.5 3.5t23.5 7.5l5 3q0 -13 -4.5 -27t-20.5 -27.5t-42 -13.5zM225 934q-2 -6 -2 -17q0 -31 36 -67 l69 -65q8 -7 8 -15q0 -9 -12.5 -16t-27.5 -9l-48 38q-74 60 -74 93q0 29 51 58z"/>
<glyph glyph-name="Eacute" horiz-adv-x="551" unicode="É" d="M394 355h-251v-301h358q0 -7 -1 -16t-10 -23.5t-26 -14.5h-307q-8 0 -20 1t-32 12t-20 31v650h416v-5.5t-2 -13t-5.5 -16.5t-11.5 -13t-18 -6h-321v-231h245q26 0 44.5 3.5t23.5 7.5l5 3q0 -13 -4.5 -27t-20.5 -27.5t-42 -13.5zM371 934q51 -29 51 -58q0 -33 -74 -93 l-48 -38q-15 2 -27.5 9t-12.5 16q0 8 8 15l69 65q36 36 36 67q0 11 -2 17z"/>
<glyph glyph-name="Ecircumflex" horiz-adv-x="551" unicode="Ê" d="M217 870l81 67l81 -67q37 -30 37 -64q0 -36 -45 -60q6 12 6 24q0 18 -19.5 44t-39.5 43l-20 17q-9 -7 -22 -18.5t-35 -39.5t-22 -46q0 -12 6 -24q-45 24 -45 60q0 34 37 64zM394 355h-251v-301h358q0 -7 -1 -16t-10 -23.5t-26 -14.5h-307q-8 0 -20 1t-32 12t-20 31v650 h416v-5.5t-2 -13t-5.5 -16.5t-11.5 -13t-18 -6h-321v-231h245q26 0 44.5 3.5t23.5 7.5l5 3q0 -13 -4.5 -27t-20.5 -27.5t-42 -13.5z"/>
<glyph glyph-name="Edieresis" horiz-adv-x="551" unicode="Ë" d="M394 355h-251v-301h358q0 -7 -1 -16t-10 -23.5t-26 -14.5h-307q-8 0 -20 1t-32 12t-20 31v650h416v-5.5t-2 -13t-5.5 -16.5t-11.5 -13t-18 -6h-321v-231h245q26 0 44.5 3.5t23.5 7.5l5 3q0 -13 -4.5 -27t-20.5 -27.5t-42 -13.5zM333 803v56h52q11 0 11 -14v-55h-52 q-11 0 -11 13zM200 803v56h52q11 0 11 -14v-55h-52q-11 0 -11 13z"/>
<glyph glyph-name="Igrave" horiz-adv-x="228" unicode="Ì" d="M85 34v670q6 0 16 -1t26 -12t16 -31v-670q-6 0 -16 1t-26 12t-16 31zM41 934q-2 -6 -2 -17q0 -31 36 -67l69 -65q8 -7 8 -15q0 -9 -12.5 -16t-27.5 -9l-48 38q-74 60 -74 93q0 29 51 58z"/>
<glyph glyph-name="Iacute" horiz-adv-x="228" unicode="Í" d="M187 934q51 -29 51 -58q0 -33 -74 -93l-48 -38q-15 2 -27.5 9t-12.5 16q0 8 8 15l69 65q36 36 36 67q0 11 -2 17zM85 34v670q6 0 16 -1t26 -12t16 -31v-670q-6 0 -16 1t-26 12t-16 31z"/>
<glyph glyph-name="Icircumflex" horiz-adv-x="228" unicode="Î" d="M85 34v670q6 0 16 -1t26 -12t16 -31v-670q-6 0 -16 1t-26 12t-16 31zM33 870l81 67l81 -67q37 -30 37 -64q0 -36 -45 -60q6 12 6 24q0 18 -20 44t-40 43l-19 17q-9 -7 -22 -18.5t-35 -39.5t-22 -46q0 -12 6 -24q-45 24 -45 60q0 34 37 64z"/>
<glyph glyph-name="Idieresis" horiz-adv-x="228" unicode="Ï" d="M149 803v56h52q11 0 11 -14v-55h-52q-11 0 -11 13zM16 803v56h52q11 0 11 -14v-55h-52q-11 0 -11 13zM85 34v670q6 0 16 -1t26 -12t16 -31v-670q-6 0 -16 1t-26 12t-16 31z"/>
<glyph glyph-name="Eth" horiz-adv-x="686" unicode="Ð" d="M338 640h-195v-264h230q1 -3 1 -14q0 -40 -29 -40h-202v-268h195q215 0 215 181v225q0 180 -215 180zM55 376h30v318h253q56 0 102.5 -11t86 -35t62 -70t22.5 -109v-244q0 -63 -22.5 -109t-62 -70t-86 -35t-102.5 -11h-183q-10 0 -22.5 1.5t-30 12.5t-17.5 30v278h-57 q-1 4 -1 16q0 38 28 38z"/>
<glyph glyph-name="Ntilde" horiz-adv-x="691" unicode="Ñ" d="M195 646l322 -521l39 -69q-8 49 -8 71v567q6 0 16 -1t26 -12t16 -31v-660q-37 0 -64.5 15.5t-37.5 30.5l-9 16l-360 579q8 -43 8 -83v-558q-6 0 -16 1t-26 12t-16 31v660q29 0 43.5 -1.5t33.5 -12.5t33 -34zM217 780q-2 18 -2 26q0 55 56 55q26 0 76 -23.5t80 -23.5 t48 27q1 -8 1 -22q0 -31 -13 -45.5t-43 -14.5q-27 0 -75.5 23t-77.5 23q-34 0 -50 -25z"/>
<glyph glyph-name="Ograve" d="M544 217v260q0 87 -43 131t-163 44q-62 0 -103.5 -12.5t-63 -37t-30 -54t-8.5 -71.5v-260q0 -87 42.5 -131t162.5 -44t163 44t43 131zM602 490v-286q0 -104 -65.5 -160t-197.5 -56q-133 0 -198.5 56t-65.5 160v286q0 104 65.5 160t198.5 56q132 0 197.5 -56t65.5 -160z M266 934q-2 -6 -2 -17q0 -31 36 -67l69 -65q8 -7 8 -15q0 -9 -12.5 -16t-27.5 -9l-48 38q-74 60 -74 93q0 29 51 58z" unicode="Ò"/>
<glyph glyph-name="Oacute" d="M412 934q51 -29 51 -58q0 -33 -74 -93l-48 -38q-15 2 -27.5 9t-12.5 16q0 8 8 15l69 65q36 36 36 67q0 11 -2 17zM544 217v260q0 87 -43 131t-163 44q-62 0 -103.5 -12.5t-63 -37t-30 -54t-8.5 -71.5v-260q0 -87 42.5 -131t162.5 -44t163 44t43 131zM602 490v-286 q0 -104 -65.5 -160t-197.5 -56q-133 0 -198.5 56t-65.5 160v286q0 104 65.5 160t198.5 56q132 0 197.5 -56t65.5 -160z" unicode="Ó"/>
<glyph glyph-name="Ocircumflex" d="M544 217v260q0 87 -43 131t-163 44q-62 0 -103.5 -12.5t-63 -37t-30 -54t-8.5 -71.5v-260q0 -87 42.5 -131t162.5 -44t163 44t43 131zM602 490v-286q0 -104 -65.5 -160t-197.5 -56q-133 0 -198.5 56t-65.5 160v286q0 104 65.5 160t198.5 56q132 0 197.5 -56t65.5 -160z M258 870l81 67l81 -67q37 -30 37 -64q0 -36 -45 -60q6 12 6 24q0 18 -20 44t-40 43l-19 17q-9 -7 -22 -18.5t-35 -39.5t-22 -46q0 -12 6 -24q-45 24 -45 60q0 34 37 64z" unicode="Ô"/>
<glyph glyph-name="Otilde" d="M210 780q-2 18 -2 26q0 55 56 55q26 0 76 -23.5t80 -23.5t48 27q1 -8 1 -22q0 -31 -13 -45.5t-43 -14.5q-27 0 -75.5 23t-77.5 23q-34 0 -50 -25zM544 217v260q0 87 -43 131t-163 44q-62 0 -103.5 -12.5t-63 -37t-30 -54t-8.5 -71.5v-260q0 -87 42.5 -131t162.5 -44 t163 44t43 131zM602 490v-286q0 -104 -65.5 -160t-197.5 -56q-133 0 -198.5 56t-65.5 160v286q0 104 65.5 160t198.5 56q132 0 197.5 -56t65.5 -160z" unicode="Õ"/>
<glyph glyph-name="Odieresis" d="M544 217v260q0 87 -43 131t-163 44q-62 0 -103.5 -12.5t-63 -37t-30 -54t-8.5 -71.5v-260q0 -87 42.5 -131t162.5 -44t163 44t43 131zM602 490v-286q0 -104 -65.5 -160t-197.5 -56q-133 0 -198.5 56t-65.5 160v286q0 104 65.5 160t198.5 56q132 0 197.5 -56t65.5 -160z M374 803v56h52q11 0 11 -14v-55h-52q-11 0 -11 13zM241 803v56h52q11 0 11 -14v-55h-52q-11 0 -11 13z" unicode="Ö"/>
<glyph glyph-name="multiply" horiz-adv-x="430" unicode="×" d="M302 126l-88 87l-103 -104q-25 19 -25 39q0 11 10 21l81 83l-102 98q17 30 37 30q5 0 16 -9l86 -81q4 5 51 52l52 52q25 -18 25 -39q0 -11 -10 -21l-81 -83l104 -104q-18 -28 -37 -28q-8 0 -16 7z"/>
<glyph glyph-name="Oslash" d="M544 217v260q0 33 -6 60l-367 -447q46 -48 167 -48q120 0 163 44t43 131zM133 217q0 -44 8 -73l371 452q-46 56 -174 56q-62 0 -103.5 -12.5t-63 -37t-30 -54t-8.5 -71.5v-260zM602 490v-286q0 -104 -65.5 -160t-197.5 -56q-135 0 -203 59l-54 -66q-19 17 -19 48 q0 19 10 32l27 33q-25 46 -25 110v286q0 104 65.5 160t198.5 56q141 0 208 -67l55 67q22 -20 22 -49q0 -16 -8 -25l-35 -42q21 -44 21 -100z" unicode="Ø"/>
<glyph glyph-name="Ugrave" d="M602 661v-464q0 -98 -76 -153.5t-187 -55.5q-112 0 -188 55.5t-76 153.5v508q6 0 16 -1t26 -12t16 -31v-452q0 -77 56.5 -121t149.5 -44q92 0 148.5 44t56.5 121v496q6 0 16 -1t26 -12t16 -31zM266 934q-2 -6 -2 -17q0 -31 36 -67l69 -65q8 -7 8 -15q0 -9 -12.5 -16 t-27.5 -9l-48 38q-74 60 -74 93q0 29 51 58z" unicode="Ù"/>
<glyph glyph-name="Uacute" d="M412 934q51 -29 51 -58q0 -33 -74 -93l-48 -38q-15 2 -27.5 9t-12.5 16q0 8 8 15l69 65q36 36 36 67q0 11 -2 17zM602 661v-464q0 -98 -76 -153.5t-187 -55.5q-112 0 -188 55.5t-76 153.5v508q6 0 16 -1t26 -12t16 -31v-452q0 -77 56.5 -121t149.5 -44q92 0 148.5 44 t56.5 121v496q6 0 16 -1t26 -12t16 -31z" unicode="Ú"/>
<glyph glyph-name="Ucircumflex" d="M602 661v-464q0 -98 -76 -153.5t-187 -55.5q-112 0 -188 55.5t-76 153.5v508q6 0 16 -1t26 -12t16 -31v-452q0 -77 56.5 -121t149.5 -44q92 0 148.5 44t56.5 121v496q6 0 16 -1t26 -12t16 -31zM258 870l81 67l81 -67q37 -30 37 -64q0 -36 -45 -60q6 12 6 24q0 18 -20 44 t-40 43l-19 17q-9 -7 -22 -18.5t-35 -39.5t-22 -46q0 -12 6 -24q-45 24 -45 60q0 34 37 64z" unicode="Û"/>
<glyph glyph-name="Udieresis" d="M374 803v56h52q11 0 11 -14v-55h-52q-11 0 -11 13zM241 803v56h52q11 0 11 -14v-55h-52q-11 0 -11 13zM602 661v-464q0 -98 -76 -153.5t-187 -55.5q-112 0 -188 55.5t-76 153.5v508q6 0 16 -1t26 -12t16 -31v-452q0 -77 56.5 -121t149.5 -44q92 0 148.5 44t56.5 121v496 q6 0 16 -1t26 -12t16 -31z" unicode="Ü"/>
<glyph glyph-name="Yacute" horiz-adv-x="528" unicode="Ý" d="M293 303h1v-313q-7 0 -16.5 1t-26 12.5t-16.5 31.5v268q-50 42 -99 127.5t-87 170.5t-47 98q0 1 13 1q45 0 76 -54q7 -11 36 -74.5t64 -123.5t73 -96q38 36 73 96t64 123.5t36 74.5q31 54 76 54l13 -1q-9 -13 -47 -98t-87 -170.5t-99 -127.5zM338 934q51 -29 51 -58 q0 -33 -74 -93l-48 -38q-15 2 -27.5 9t-12.5 16q0 8 8 15l69 65q36 36 36 67q0 11 -2 17z"/>
<glyph glyph-name="Thorn" horiz-adv-x="566" unicode="Þ" d="M249 566h-106v-343h106q101 0 153 36t52 136q0 93 -53.5 132t-151.5 39zM143 620h106q45 0 81.5 -5.5t71 -20.5t58.5 -38.5t38 -62t14 -89.5v-18q0 -217 -263 -217h-106v-179q-6 0 -16 1t-26 12t-16 30v710q10 0 20.5 -1.5t24 -12.5t13.5 -29v-80z"/>
<glyph glyph-name="germandbls" horiz-adv-x="622" unicode="ß" d="M130 -10q-6 0 -15 1t-24.5 12t-15.5 31v525q0 82 68 133.5t155 51.5q90 0 148.5 -39t58.5 -110q0 -31 -19.5 -57.5t-46.5 -46.5t-54.5 -39t-47 -43.5t-19.5 -51.5q0 -30 20 -46t50 -19t64.5 -10.5t64.5 -18t50 -43t20 -85.5q0 -68 -49.5 -107.5t-143.5 -39.5 q-72 0 -120.5 26t-48.5 77q0 29 15 59q0 -52 41.5 -80t112.5 -28q79 0 108.5 25.5t29.5 72.5q0 40 -27.5 60t-67 26t-79.5 14t-67.5 35.5t-27.5 78.5q0 37 19.5 69t46.5 54.5t54.5 41.5t47 38t19.5 37q0 96 -149 96q-80 0 -125.5 -41t-45.5 -110v-549z"/>
<glyph glyph-name="agrave" horiz-adv-x="497" unicode="à" d="M179 750q-2 -6 -2 -17q0 -31 36 -67l69 -65q8 -7 8 -15q0 -9 -12.5 -16t-27.5 -9l-48 38q-74 60 -74 93q0 29 51 58zM111 129q0 -41 34.5 -65.5t105.5 -24.5q33 0 63 6.5t44 12.5l14 7v222q-6 -23 -49 -36t-89.5 -20t-84.5 -32.5t-38 -69.5zM54 130q0 52 29.5 84.5t73 46 t88.5 22.5t81.5 25.5t45.5 43.5q0 48 -27.5 74t-98.5 26q-72 0 -113 -28.5t-41 -76.5q-21 28 -21 60q0 44 48 71.5t127 27.5q91 0 136 -41t45 -116v-354q-26 10 -61 10q-14 0 -57.5 -8.5t-65.5 -8.5q-91 0 -140 39t-49 103z"/>
<glyph glyph-name="aacute" horiz-adv-x="497" unicode="á" d="M111 129q0 -41 34.5 -65.5t105.5 -24.5q33 0 63 6.5t44 12.5l14 7v222q-6 -23 -49 -36t-89.5 -20t-84.5 -32.5t-38 -69.5zM54 130q0 52 29.5 84.5t73 46t88.5 22.5t81.5 25.5t45.5 43.5q0 48 -27.5 74t-98.5 26q-72 0 -113 -28.5t-41 -76.5q-21 28 -21 60q0 44 48 71.5 t127 27.5q91 0 136 -41t45 -116v-354q-26 10 -61 10q-14 0 -57.5 -8.5t-65.5 -8.5q-91 0 -140 39t-49 103zM325 750q51 -29 51 -58q0 -33 -74 -93l-48 -38q-15 2 -27.5 9t-12.5 16q0 8 8 15l69 65q36 36 36 67q0 11 -2 17z"/>
<glyph glyph-name="acircumflex" horiz-adv-x="497" unicode="â" d="M111 129q0 -41 34.5 -65.5t105.5 -24.5q33 0 63 6.5t44 12.5l14 7v222q-6 -23 -49 -36t-89.5 -20t-84.5 -32.5t-38 -69.5zM54 130q0 52 29.5 84.5t73 46t88.5 22.5t81.5 25.5t45.5 43.5q0 48 -27.5 74t-98.5 26q-72 0 -113 -28.5t-41 -76.5q-21 28 -21 60q0 44 48 71.5 t127 27.5q91 0 136 -41t45 -116v-354q-26 10 -61 10q-14 0 -57.5 -8.5t-65.5 -8.5q-91 0 -140 39t-49 103zM171 686l81 67l81 -67q37 -30 37 -64q0 -36 -45 -60q6 12 6 24q0 18 -20 44t-40 43l-19 17q-9 -7 -22 -18.5t-35 -39.5t-22 -46q0 -12 6 -24q-45 24 -45 60 q0 34 37 64z"/>
<glyph glyph-name="atilde" horiz-adv-x="497" unicode="ã" d="M111 129q0 -41 34.5 -65.5t105.5 -24.5q33 0 63 6.5t44 12.5l14 7v222q-6 -23 -49 -36t-89.5 -20t-84.5 -32.5t-38 -69.5zM54 130q0 52 29.5 84.5t73 46t88.5 22.5t81.5 25.5t45.5 43.5q0 48 -27.5 74t-98.5 26q-72 0 -113 -28.5t-41 -76.5q-21 28 -21 60q0 44 48 71.5 t127 27.5q91 0 136 -41t45 -116v-354q-26 10 -61 10q-14 0 -57.5 -8.5t-65.5 -8.5q-91 0 -140 39t-49 103zM123 596q-2 18 -2 26q0 55 56 55q26 0 76 -23.5t80 -23.5t48 27q1 -8 1 -22q0 -31 -13 -45.5t-43 -14.5q-27 0 -75.5 23t-77.5 23q-34 0 -50 -25z"/>
<glyph glyph-name="adieresis" horiz-adv-x="497" unicode="ä" d="M284 619v56h52q11 0 11 -14v-55h-52q-11 0 -11 13zM151 619v56h52q11 0 11 -14v-55h-52q-11 0 -11 13zM111 129q0 -41 34.5 -65.5t105.5 -24.5q33 0 63 6.5t44 12.5l14 7v222q-6 -23 -49 -36t-89.5 -20t-84.5 -32.5t-38 -69.5zM54 130q0 52 29.5 84.5t73 46t88.5 22.5 t81.5 25.5t45.5 43.5q0 48 -27.5 74t-98.5 26q-72 0 -113 -28.5t-41 -76.5q-21 28 -21 60q0 44 48 71.5t127 27.5q91 0 136 -41t45 -116v-354q-26 10 -61 10q-14 0 -57.5 -8.5t-65.5 -8.5q-91 0 -140 39t-49 103z"/>
<glyph glyph-name="aring" horiz-adv-x="497" unicode="å" d="M298 631v39q0 37 -47 37q-27 0 -37 -9.5t-10 -27.5v-39q0 -19 10 -28t37 -9q47 0 47 37zM334 684v-68q0 -26 -22.5 -40t-60.5 -14t-60.5 14t-22.5 40v68q0 25 22.5 40t60.5 15t60.5 -15t22.5 -40zM111 129q0 -41 34.5 -65.5t105.5 -24.5q33 0 63 6.5t44 12.5l14 7v222 q-6 -23 -49 -36t-89.5 -20t-84.5 -32.5t-38 -69.5zM54 130q0 52 29.5 84.5t73 46t88.5 22.5t81.5 25.5t45.5 43.5q0 48 -27.5 74t-98.5 26q-72 0 -113 -28.5t-41 -76.5q-21 28 -21 60q0 44 48 71.5t127 27.5q91 0 136 -41t45 -116v-354q-26 10 -61 10q-14 0 -57.5 -8.5 t-65.5 -8.5q-91 0 -140 39t-49 103z"/>
<glyph glyph-name="ae" horiz-adv-x="804" unicode="æ" d="M427 336v-39q0 -2 19 -7t48.5 -10t51.5 -5q143 0 143 86q0 93 -131 93q-75 0 -103 -29t-28 -89zM111 129q0 -40 36.5 -65t84.5 -25q55 0 97.5 33.5t42.5 90.5v115q-10 -21 -53.5 -32.5t-89 -17t-82 -30t-36.5 -69.5zM726 152q23 -32 23 -64q0 -48 -56.5 -74t-131.5 -26 q-37 0 -69 8t-51 19t-32.5 22t-18.5 19l-6 8q-22 -37 -65 -56.5t-92 -19.5q-72 0 -122 38.5t-50 103.5q0 54 29.5 87.5t73 46.5t88 21.5t81 24t45.5 42.5q0 48 -27.5 74t-98.5 26q-72 0 -113 -28.5t-41 -76.5q-21 28 -21 60q0 44 48 71.5t127 27.5q111 0 154 -62 q47 62 156 62q88 0 138 -39.5t50 -105.5q0 -64 -47 -102t-146 -38q-29 0 -60 6.5t-47 12.5l-17 7v-89q0 -59 30 -87.5t104 -28.5q72 0 118.5 28.5t46.5 81.5z"/>
<glyph glyph-name="ccedilla" horiz-adv-x="493" unicode="ç" d="M214 -111q0 3 3 15l24 85q-81 5 -128.5 45.5t-47.5 108.5v208q0 73 50 114t139 41q78 0 125.5 -27t47.5 -72q0 -31 -22 -60q0 48 -40.5 76.5t-112.5 28.5q-132 0 -132 -112v-187q0 -51 36.5 -81t107.5 -30t115.5 28t44.5 82q25 -36 25 -63q0 -46 -48 -71.5t-117 -28.5v-5 l-11 -43q46 0 75 -23t29 -68q0 -40 -29 -63t-71 -23q-65 0 -65 50q24 -10 47 -10q66 0 66 48q0 23 -18.5 34.5t-44.5 11.5q-12 0 -24 -2t-18 -4z"/>
<glyph glyph-name="egrave" horiz-adv-x="497" unicode="è" d="M120 336v-38l22 -8q56 -15 97 -15q143 0 143 86q0 93 -131 93q-75 0 -103 -29t-28 -89zM419 152q23 -32 23 -64q0 -48 -56.5 -74t-131.5 -26q-87 0 -138 41t-51 114v208q0 73 47.5 114t136.5 41q88 0 138 -39.5t50 -105.5q0 -64 -47 -102t-146 -38q-29 0 -60 6.5 t-48 12.5l-16 7v-89q0 -59 30 -87.5t104 -28.5q72 0 118.5 28.5t46.5 81.5zM177 750q-2 -6 -2 -17q0 -31 36 -67l69 -65q8 -7 8 -15q0 -9 -12.5 -16t-27.5 -9l-48 38q-74 60 -74 93q0 29 51 58z"/>
<glyph glyph-name="eacute" horiz-adv-x="497" unicode="é" d="M323 750q51 -29 51 -58q0 -33 -74 -93l-48 -38q-15 2 -27.5 9t-12.5 16q0 8 8 15l69 65q36 36 36 67q0 11 -2 17zM120 336v-38l22 -8q56 -15 97 -15q143 0 143 86q0 93 -131 93q-75 0 -103 -29t-28 -89zM419 152q23 -32 23 -64q0 -48 -56.5 -74t-131.5 -26q-87 0 -138 41 t-51 114v208q0 73 47.5 114t136.5 41q88 0 138 -39.5t50 -105.5q0 -64 -47 -102t-146 -38q-29 0 -60 6.5t-48 12.5l-16 7v-89q0 -59 30 -87.5t104 -28.5q72 0 118.5 28.5t46.5 81.5z"/>
<glyph glyph-name="ecircumflex" horiz-adv-x="497" unicode="ê" d="M120 336v-38l22 -8q56 -15 97 -15q143 0 143 86q0 93 -131 93q-75 0 -103 -29t-28 -89zM419 152q23 -32 23 -64q0 -48 -56.5 -74t-131.5 -26q-87 0 -138 41t-51 114v208q0 73 47.5 114t136.5 41q88 0 138 -39.5t50 -105.5q0 -64 -47 -102t-146 -38q-29 0 -60 6.5 t-48 12.5l-16 7v-89q0 -59 30 -87.5t104 -28.5q72 0 118.5 28.5t46.5 81.5zM169 686l81 67l81 -67q37 -30 37 -64q0 -36 -45 -60q6 12 6 24q0 18 -20 44t-40 43l-19 17q-9 -7 -22 -18.5t-35 -39.5t-22 -46q0 -12 6 -24q-45 24 -45 60q0 34 37 64z"/>
<glyph glyph-name="edieresis" horiz-adv-x="497" unicode="ë" d="M285 619v56h52q11 0 11 -14v-55h-52q-11 0 -11 13zM152 619v56h52q11 0 11 -14v-55h-52q-11 0 -11 13zM120 336v-38l22 -8q56 -15 97 -15q143 0 143 86q0 93 -131 93q-75 0 -103 -29t-28 -89zM419 152q23 -32 23 -64q0 -48 -56.5 -74t-131.5 -26q-87 0 -138 41t-51 114 v208q0 73 47.5 114t136.5 41q88 0 138 -39.5t50 -105.5q0 -64 -47 -102t-146 -38q-29 0 -60 6.5t-48 12.5l-16 7v-89q0 -59 30 -87.5t104 -28.5q72 0 118.5 28.5t46.5 81.5z"/>
<glyph glyph-name="igrave" horiz-adv-x="205" unicode="ì" d="M75 32v458q4 0 10.5 -1t18 -4.5t19 -13.5t7.5 -24v-458q-2 0 -6 0.5t-13.5 2.5t-16.5 6t-13 13t-6 21zM29 750q-2 -6 -2 -17q0 -31 36 -67l69 -65q8 -7 8 -15q0 -9 -12.5 -16t-27.5 -9l-48 38q-74 60 -74 93q0 29 51 58z"/>
<glyph glyph-name="iacute" horiz-adv-x="205" unicode="í" d="M175 750q51 -29 51 -58q0 -33 -74 -93l-48 -38q-15 2 -27.5 9t-12.5 16q0 8 8 15l69 65q36 36 36 67q0 11 -2 17zM75 32v458q4 0 10.5 -1t18 -4.5t19 -13.5t7.5 -24v-458q-2 0 -6 0.5t-13.5 2.5t-16.5 6t-13 13t-6 21z"/>
<glyph glyph-name="icircumflex" horiz-adv-x="205" unicode="î" d="M75 32v458q4 0 10.5 -1t18 -4.5t19 -13.5t7.5 -24v-458q-2 0 -6 0.5t-13.5 2.5t-16.5 6t-13 13t-6 21zM21 686l81 67l81 -67q37 -30 37 -64q0 -36 -45 -60q6 12 6 24q0 18 -20 44t-40 43l-19 17q-9 -7 -22 -18.5t-35 -39.5t-22 -46q0 -12 6 -24q-45 24 -45 60q0 34 37 64 z"/>
<glyph glyph-name="idieresis" horiz-adv-x="205" unicode="ï" d="M137 619v56h52q11 0 11 -14v-55h-52q-11 0 -11 13zM4 619v56h52q11 0 11 -14v-55h-52q-11 0 -11 13zM75 32v458q4 0 10.5 -1t18 -4.5t19 -13.5t7.5 -24v-458q-2 0 -6 0.5t-13.5 2.5t-16.5 6t-13 13t-6 21z"/>
<glyph glyph-name="eth" horiz-adv-x="539" unicode="ð" d="M120 156q0 -61 30.5 -89t118.5 -28t119 28t31 89v196q0 46 -48.5 73.5t-113.5 27.5q-80 0 -108.5 -29t-28.5 -88v-180zM65 141v210q0 72 48.5 112.5t146.5 40.5q110 0 154 -49q-15 91 -79 157l-123 -51q-11 20 -11 32q0 19 24 30l64 27q-79 52 -152 52q-8 0 -20 -2 q11 44 64 44q28 0 75.5 -17t91.5 -52l110 46q12 -22 12 -33q0 -20 -24 -29l-57 -24q85 -102 85 -245v-249q0 -73 -51.5 -113t-153.5 -40t-153 40t-51 113z"/>
<glyph glyph-name="ntilde" horiz-adv-x="526" unicode="ñ" d="M396 37v310q0 52 -31 78.5t-102 26.5q-37 0 -70.5 -6t-48.5 -12l-14 -6v-435q-6 0 -15 1t-24.5 12t-15.5 31v461q28 -14 45 -14q24 0 74 11t83 11q74 0 124 -33t50 -111v-369q-6 0 -15 1t-24.5 12t-15.5 31zM129 596q-2 18 -2 26q0 55 56 55q26 0 76 -23.5t80 -23.5 t48 27q1 -8 1 -22q0 -31 -13 -45.5t-43 -14.5q-27 0 -75.5 23t-77.5 23q-34 0 -50 -25z"/>
<glyph glyph-name="ograve" horiz-adv-x="537" unicode="ò" d="M196 750q-2 -6 -2 -17q0 -31 36 -67l69 -65q8 -7 8 -15q0 -9 -12.5 -16t-27.5 -9l-48 38q-74 60 -74 93q0 29 51 58zM417 158v178q0 61 -30.5 89.5t-117.5 28.5t-118 -28.5t-31 -89.5v-178q0 -61 30.5 -90t118.5 -29q87 0 117.5 29t30.5 90zM472 351v-208 q0 -155 -203 -155q-204 0 -204 155v208q0 74 51 114.5t153 40.5t152.5 -40.5t50.5 -114.5z"/>
<glyph glyph-name="oacute" horiz-adv-x="537" unicode="ó" d="M417 158v178q0 61 -30.5 89.5t-117.5 28.5t-118 -28.5t-31 -89.5v-178q0 -61 30.5 -90t118.5 -29q87 0 117.5 29t30.5 90zM472 351v-208q0 -155 -203 -155q-204 0 -204 155v208q0 74 51 114.5t153 40.5t152.5 -40.5t50.5 -114.5zM342 750q51 -29 51 -58q0 -33 -74 -93 l-48 -38q-15 2 -27.5 9t-12.5 16q0 8 8 15l69 65q36 36 36 67q0 11 -2 17z"/>
<glyph glyph-name="ocircumflex" horiz-adv-x="537" unicode="ô" d="M417 158v178q0 61 -30.5 89.5t-117.5 28.5t-118 -28.5t-31 -89.5v-178q0 -61 30.5 -90t118.5 -29q87 0 117.5 29t30.5 90zM472 351v-208q0 -155 -203 -155q-204 0 -204 155v208q0 74 51 114.5t153 40.5t152.5 -40.5t50.5 -114.5zM188 686l81 67l81 -67q37 -30 37 -64 q0 -36 -45 -60q6 12 6 24q0 18 -20 44t-40 43l-19 17q-9 -7 -22 -18.5t-35 -39.5t-22 -46q0 -12 6 -24q-45 24 -45 60q0 34 37 64z"/>
<glyph glyph-name="otilde" horiz-adv-x="537" unicode="õ" d="M417 158v178q0 61 -30.5 89.5t-117.5 28.5t-118 -28.5t-31 -89.5v-178q0 -61 30.5 -90t118.5 -29q87 0 117.5 29t30.5 90zM472 351v-208q0 -155 -203 -155q-204 0 -204 155v208q0 74 51 114.5t153 40.5t152.5 -40.5t50.5 -114.5zM140 596q-2 18 -2 26q0 55 56 55 q26 0 76 -23.5t80 -23.5t48 27q1 -8 1 -22q0 -31 -13 -45.5t-43 -14.5q-27 0 -75.5 23t-77.5 23q-34 0 -50 -25z"/>
<glyph glyph-name="odieresis" horiz-adv-x="537" unicode="ö" d="M304 619v56h52q11 0 11 -14v-55h-52q-11 0 -11 13zM171 619v56h52q11 0 11 -14v-55h-52q-11 0 -11 13zM417 158v178q0 61 -30.5 89.5t-117.5 28.5t-118 -28.5t-31 -89.5v-178q0 -61 30.5 -90t118.5 -29q87 0 117.5 29t30.5 90zM472 351v-208q0 -155 -203 -155 q-204 0 -204 155v208q0 74 51 114.5t153 40.5t152.5 -40.5t50.5 -114.5z"/>
<glyph glyph-name="divide" horiz-adv-x="485" unicode="÷" d="M104 284h304q1 -3 1 -14q0 -40 -29 -40h-303q-1 4 -1 16q0 38 28 38zM212 449h54q13 0 13 -15v-58h-54q-13 0 -13 16v57zM212 142h54q13 0 13 -15v-58h-54q-13 0 -13 16v57z"/>
<glyph glyph-name="oslash" horiz-adv-x="537" unicode="ø" d="M120 158v-12l269 276q-32 32 -120 32q-87 0 -118 -28.5t-31 -89.5v-178zM417 158v178q0 13 -2 33l-279 -285q29 -45 133 -45q87 0 117.5 29t30.5 90zM472 351v-208q0 -155 -203 -155q-122 0 -171 57l-51 -52q-14 17 -14 41t14 38l24 24q-6 23 -6 47v208q0 74 51 114.5 t153 40.5q105 0 158 -45l50 51q17 -19 17 -43q0 -19 -12 -31l-22 -23q12 -29 12 -64z"/>
<glyph glyph-name="ugrave" horiz-adv-x="526" unicode="ù" d="M190 750q-2 -6 -2 -17q0 -31 36 -67l69 -65q8 -7 8 -15q0 -9 -12.5 -16t-27.5 -9l-48 38q-74 60 -74 93q0 29 51 58zM130 457v-305q0 -22 4 -38.5t16.5 -35t41.5 -29t72 -10.5q37 0 70 6.5t48 12.5l14 6v437q6 0 15 -1t24.5 -12t15.5 -31v-462q-23 10 -54 10 q-17 0 -64.5 -8.5t-72.5 -8.5q-46 0 -85 11.5t-69.5 45.5t-30.5 87v369q2 0 6 -0.5t13.5 -3t16.5 -6.5t13 -13t6 -21z"/>
<glyph glyph-name="uacute" horiz-adv-x="526" unicode="ú" d="M130 457v-305q0 -22 4 -38.5t16.5 -35t41.5 -29t72 -10.5q37 0 70 6.5t48 12.5l14 6v437q6 0 15 -1t24.5 -12t15.5 -31v-462q-23 10 -54 10q-17 0 -64.5 -8.5t-72.5 -8.5q-46 0 -85 11.5t-69.5 45.5t-30.5 87v369q2 0 6 -0.5t13.5 -3t16.5 -6.5t13 -13t6 -21zM336 750 q51 -29 51 -58q0 -33 -74 -93l-48 -38q-15 2 -27.5 9t-12.5 16q0 8 8 15l69 65q36 36 36 67q0 11 -2 17z"/>
<glyph glyph-name="ucircumflex" horiz-adv-x="526" unicode="û" d="M130 457v-305q0 -22 4 -38.5t16.5 -35t41.5 -29t72 -10.5q37 0 70 6.5t48 12.5l14 6v437q6 0 15 -1t24.5 -12t15.5 -31v-462q-23 10 -54 10q-17 0 -64.5 -8.5t-72.5 -8.5q-46 0 -85 11.5t-69.5 45.5t-30.5 87v369q2 0 6 -0.5t13.5 -3t16.5 -6.5t13 -13t6 -21zM182 686 l81 67l81 -67q37 -30 37 -64q0 -36 -45 -60q6 12 6 24q0 18 -20 44t-40 43l-19 17q-9 -7 -22 -18.5t-35 -39.5t-22 -46q0 -12 6 -24q-45 24 -45 60q0 34 37 64z"/>
<glyph glyph-name="udieresis" horiz-adv-x="526" unicode="ü" d="M298 619v56h52q11 0 11 -14v-55h-52q-11 0 -11 13zM165 619v56h52q11 0 11 -14v-55h-52q-11 0 -11 13zM130 457v-305q0 -22 4 -38.5t16.5 -35t41.5 -29t72 -10.5q37 0 70 6.5t48 12.5l14 6v437q6 0 15 -1t24.5 -12t15.5 -31v-462q-23 10 -54 10q-17 0 -64.5 -8.5 t-72.5 -8.5q-46 0 -85 11.5t-69.5 45.5t-30.5 87v369q2 0 6 -0.5t13.5 -3t16.5 -6.5t13 -13t6 -21z"/>
<glyph glyph-name="yacute" horiz-adv-x="484" unicode="ý" d="M248 79q5 3 12.5 9.5t27.5 27.5t36 43t30.5 56t18.5 67l18 169q2 19 13.5 30t20 13.5t24.5 4.5l-19 -193q-15 -162 -143 -260l-39 -30q-31 -24 -41.5 -32.5t-31.5 -28t-28 -32.5t-14 -33.5t-7 -43.5q0 -35 23 -89q-8 -2 -15 -2q-26 0 -45.5 21t-19.5 74q0 104 142 199 q-47 29 -92 96t-54 161l-20 194q6 0 15 -1t25 -12t18 -31l20 -174q4 -35 18.5 -68.5t32 -57t34.5 -41.5t28 -27zM319 750q51 -29 51 -58q0 -33 -74 -93l-48 -38q-15 2 -27.5 9t-12.5 16q0 8 8 15l69 65q36 36 36 67q0 11 -2 17z"/>
<glyph glyph-name="thorn" horiz-adv-x="516" unicode="þ" d="M130 349v-204q0 -45 44.5 -75.5t101.5 -30.5q54 0 87 29t33 87v184q0 57 -33 86t-87 29q-57 0 -101.5 -30t-44.5 -75zM75 -194v932h2q6 0 13 -1.5t17 -6t16.5 -16t6.5 -29.5v-137q0 -39 -3 -65t-6 -33l-3 -7q2 3 6 7t18.5 15t32 19t47 15t62.5 7q68 0 117.5 -41.5 t49.5 -110.5v-214q0 -69 -49 -110.5t-118 -41.5q-52 0 -93.5 15.5t-56.5 30.5l-16 16q12 -14 12 -105v-192q-55 0 -55 53z"/>
<glyph glyph-name="dotlessi" horiz-adv-x="205" unicode="ı" d="M75 32v458q4 0 10.5 -1t18 -4.5t19 -13.5t7.5 -24v-458q-2 0 -6 0.5t-13.5 2.5t-16.5 6t-13 13t-6 21z"/>
<glyph glyph-name="OE" horiz-adv-x="792" unicode="Œ" d="M133 257q0 -110 41.5 -157.5t163.5 -47.5h38v590h-38q-122 0 -163.5 -48t-41.5 -158v-179zM339 694h403v-5.5t-2 -13t-5.5 -16.5t-11.5 -13t-18 -6h-271v-231h195q26 0 44.5 3.5t23.5 7.5l5 3q0 -13 -4.5 -27t-20.5 -27.5t-42 -13.5h-201v-301h308q0 -7 -1 -16t-10 -23.5 t-26 -14.5h-402q-117 7 -172.5 67t-55.5 177v205q0 124 64.5 184.5t199.5 60.5z"/>
<glyph glyph-name="oe" horiz-adv-x="849" unicode="œ" d="M472 336v-38q0 -2 19 -7.5t48.5 -10.5t51.5 -5q143 0 143 86q0 93 -131 93q-75 0 -103 -29t-28 -89zM417 147v189q0 61 -30.5 89.5t-117.5 28.5t-118 -28.5t-31 -89.5v-178q0 -61 30.5 -90t118.5 -29q83 0 114.5 26t33.5 82zM771 152q23 -32 23 -64q0 -48 -56.5 -74 t-131.5 -26q-121 0 -161 71q-39 -71 -176 -71q-204 0 -204 155v208q0 74 51 114.5t153 40.5q137 0 175 -70q36 70 157 70q88 0 138 -39.5t50 -105.5q0 -64 -47 -102t-146 -38q-29 0 -60 6.5t-48 12.5l-16 7v-89q0 -59 30 -87.5t104 -28.5q72 0 118.5 28.5t46.5 81.5z"/>
<glyph glyph-name="Scaron" horiz-adv-x="619" unicode="Š" d="M55 512q0 104 72 149.5t187 45.5q43 0 80.5 -5.5t72.5 -17.5t55 -35.5t20 -56.5q0 -30 -18 -72q0 131 -217 131q-192 0 -192 -134q0 -41 25 -66.5t64.5 -36.5t87.5 -18.5t95.5 -18t87 -28.5t64.5 -57.5t25 -97.5q0 -102 -69 -154t-185 -52q-58 0 -109.5 10.5t-91 38.5 t-39.5 68q0 32 16 73q0 -70 66 -102t164 -32q93 0 140.5 39t47.5 108q0 52 -33.5 84t-83 42t-108 22t-108 25t-83 50.5t-33.5 97.5zM233 953q-5 -10 -5 -24q0 -7 2.5 -15t5 -14t8.5 -14.5t10 -13t13 -13t12.5 -12t14 -12.5t12.5 -11q1 1 15 13.5t18.5 16.5t15.5 16 t15.5 19.5t9 19t4.5 21.5t-5 23q44 -15 44 -57q0 -38 -35 -67l-73 -61h-18l-73 60q-38 30 -38 67q0 39 47 58z"/>
<glyph glyph-name="scaron" horiz-adv-x="467" unicode="š" d="M164 753q-5 -10 -5 -24q0 -7 2.5 -15t5 -14t8.5 -14.5t10 -13t13 -13t12.5 -12t14 -12.5t12.5 -11q1 1 15 13.5t18.5 16.5t15.5 16t15.5 19.5t9 19t4.5 21.5t-5 23q44 -15 44 -57q0 -38 -35 -67l-73 -61h-18l-73 60q-38 30 -38 67q0 39 47 58zM367 140q0 44 -32.5 63 t-79.5 23t-94 9.5t-81 34t-35 84.5q0 152 184 152q75 0 125 -23t50 -73q0 -30 -24 -74q1 5 1 16q0 102 -152 102q-70 0 -99.5 -24t-29.5 -71q0 -29 18 -45.5t46 -22t62.5 -8t69 -8.5t62.5 -19t46 -43.5t18 -77.5q0 -67 -50 -107t-143 -40q-49 0 -87 8t-66.5 31.5t-28.5 61.5 q0 26 15 62q0 -50 41.5 -80.5t125.5 -30.5q138 0 138 100z"/>
<glyph glyph-name="Ydieresis" horiz-adv-x="528" unicode="Ÿ" d="M293 303h1v-313q-7 0 -16.5 1t-26 12.5t-16.5 31.5v268q-50 42 -99 127.5t-87 170.5t-47 98q0 1 13 1q45 0 76 -54q7 -11 36 -74.5t64 -123.5t73 -96q38 36 73 96t64 123.5t36 74.5q31 54 76 54l13 -1q-9 -13 -47 -98t-87 -170.5t-99 -127.5zM300 803v56h52q11 0 11 -14 v-55h-52q-11 0 -11 13zM167 803v56h52q11 0 11 -14v-55h-52q-11 0 -11 13z"/>
<glyph glyph-name="circumflex" horiz-adv-x="489" unicode="ˆ" d="M176 686l81 67l81 -67q37 -30 37 -64q0 -36 -45 -60q6 12 6 24q0 18 -20 44t-40 43l-19 17q-9 -7 -22 -18.5t-35 -39.5t-22 -46q0 -12 6 -24q-45 24 -45 60q0 34 37 64z"/>
<glyph glyph-name="caron" horiz-adv-x="489" unicode="ˇ" d="M215 753q-5 -10 -5 -24q0 -7 2.5 -15t5 -14t8.5 -14.5t10 -13t13 -13t12.5 -12t14 -12.5t12.5 -11q1 1 15 13.5t18.5 16.5t15.5 16t15.5 19.5t9 19t4.5 21.5t-5 23q44 -15 44 -57q0 -38 -35 -67l-73 -61h-18l-73 60q-38 30 -38 67q0 39 47 58z"/>
<glyph glyph-name="tilde" horiz-adv-x="389" unicode="˜" d="M65 596q-2 18 -2 26q0 55 56 55q26 0 76 -23.5t80 -23.5t48 27q1 -8 1 -22q0 -31 -13 -45.5t-43 -14.5q-27 0 -75.5 23t-77.5 23q-34 0 -50 -25z"/>
<glyph glyph-name="pi" horiz-adv-x="1113" unicode="π" d="M944 269q-14 47 -37 66.5t-57 19.5q-27 0 -92.5 -17t-99.5 -17q-49 0 -89 33.5t-40 80.5q0 41 29.5 70t70.5 31q-38 31 -38 80q0 58 46.5 93t98.5 35q106 0 194.5 -97.5t88.5 -212.5q0 -90 -75 -165zM182 241q22 -85 94 -85q27 0 92.5 17t98.5 17q49 0 89 -34t40 -81 q0 -39 -30 -69.5t-70 -30.5q38 -31 38 -80q0 -60 -46 -94.5t-98 -34.5q-106 0 -195 97.5t-89 211.5q0 90 76 166zM415 442q0 51 32.5 86.5t75.5 35.5q30 0 56 -19q-42 0 -75.5 -26t-33.5 -74q0 -33 25 -71t60 -73.5t70.5 -71.5t60.5 -79t25 -84q0 -51 -32.5 -86.5 t-75.5 -35.5q-30 0 -56 19q42 0 75.5 26t33.5 74q0 34 -25 72t-60 73.5t-70.5 72t-60.5 79t-25 82.5z"/>
<glyph glyph-name="endash" horiz-adv-x="693" unicode="–" d="M64 284h592q1 -3 1 -14q0 -40 -29 -40h-591q-1 4 -1 16q0 38 28 38z"/>
<glyph glyph-name="emdash" horiz-adv-x="790" unicode="—" d="M64 284h689q1 -3 1 -14q0 -40 -29 -40h-688q-1 4 -1 16q0 38 28 38z"/>
<glyph glyph-name="quoteleft" horiz-adv-x="217" unicode="‘" d="M148 511h-18h-45q-8 0 -8 10v58q0 115 54 115q17 0 34 -10q-31 -5 -31 -54q0 -8 3 -44z"/>
<glyph glyph-name="quotesinglbase" horiz-adv-x="217" unicode="‚" d="M69 73h18h45q8 0 8 -10v-58q0 -115 -54 -115q-17 0 -34 10q31 5 31 56q0 9 -3 42z"/>
<glyph glyph-name="quotedblleft" horiz-adv-x="352" unicode="“" d="M283 511h-18h-45q-8 0 -8 10v58q0 115 54 115q17 0 34 -10q-31 -5 -31 -54q0 -8 3 -44zM148 511h-18h-45q-8 0 -8 10v58q0 115 54 115q17 0 34 -10q-31 -5 -31 -54q0 -8 3 -44z"/>
<glyph glyph-name="quotedblright" horiz-adv-x="349" unicode="”" d="M69 694h18h45q8 0 8 -10v-58q0 -115 -54 -115q-17 0 -34 10q31 5 31 56q0 9 -3 42zM201 694h18h45q8 0 8 -10v-58q0 -115 -54 -115q-17 0 -34 10q31 5 31 56q0 9 -3 42z"/>
<glyph glyph-name="dagger" horiz-adv-x="365" unicode="†" d="M44 494h110v250q6 0 15 -1t24.5 -12t15.5 -31v-206h139q1 -3 1 -14q0 -40 -29 -40h-111v-682q-6 0 -15 1t-24.5 12t-15.5 31v638h-137q-1 4 -1 16q0 38 28 38z"/>
<glyph glyph-name="daggerdbl" horiz-adv-x="365" unicode="‡" d="M44 494h110v250q6 0 15 -1t24.5 -12t15.5 -31v-206h139q1 -3 1 -14q0 -40 -29 -40h-111v-386h139q1 -3 1 -14q0 -40 -29 -40h-111v-242q-6 0 -15 1t-24.5 12t-15.5 31v198h-137q-1 4 -1 16q0 38 28 38h110v386h-137q-1 4 -1 16q0 38 28 38z"/>
<glyph glyph-name="ellipsis" horiz-adv-x="663" unicode="…" d="M519 73h54q13 0 13 -15v-58h-54q-13 0 -13 16v57zM298 73h54q13 0 13 -15v-58h-54q-13 0 -13 16v57zM77 73h54q13 0 13 -15v-58h-54q-13 0 -13 16v57z"/>
<glyph glyph-name="perthousand" horiz-adv-x="968" unicode="‰" d="M278 514v71q0 36 -19.5 55t-73.5 19q-56 0 -74.5 -18.5t-18.5 -55.5v-71q0 -39 18 -56.5t75 -17.5q54 0 73.5 18t19.5 56zM876 316v71q0 36 -19.5 55t-73.5 19q-56 0 -74.5 -18.5t-18.5 -55.5v-71q0 -39 18 -56.5t75 -17.5q54 0 73.5 18t19.5 56zM652 109v71 q0 36 -19.5 55t-73.5 19q-56 0 -74.5 -18.5t-18.5 -55.5v-71q0 -39 18 -56.5t75 -17.5q54 0 73.5 18t19.5 56zM123 145l473 480q21 -17 21 -43q0 -22 -21 -43l-466 -466q-20 20 -20 43q0 16 13 29zM324 611v-125q0 -44 -37.5 -67.5t-101.5 -23.5q-65 0 -102.5 23.5 t-37.5 67.5v125q0 43 38 67.5t102 24.5q63 0 101 -25t38 -67zM923 413v-125q0 -44 -37.5 -67.5t-102.5 -23.5q-49 0 -86 15q2 -8 2 -16v-115q0 -44 -37.5 -67.5t-102.5 -23.5q-64 0 -101.5 23.5t-37.5 67.5v125q0 42 38 67t101 25q48 0 87 -17q-2 11 -2 17v115q0 42 38 67 t101 25q64 0 102 -24.5t38 -67.5z"/>
<glyph glyph-name="guilsinglleft" horiz-adv-x="410" unicode="‹" d="M122 248l203 -203q-17 -26 -36 -26q-16 0 -52 36l-148 148q-24 24 -24 44q0 21 25 46l199 199q29 -18 29 -38q0 -4 -2.5 -9t-8.5 -12t-9.5 -10.5l-13 -13l-11.5 -11.5z"/>
<glyph glyph-name="guilsinglright" horiz-adv-x="410" unicode="›" d="M65 45l203 203l-151 150l-11.5 11.5l-13 13t-9.5 10.5t-8.5 12t-2.5 9q0 20 29 38l199 -199q25 -25 25 -46q0 -20 -24 -44l-148 -148q-36 -36 -52 -36q-19 0 -36 26z"/>
<glyph glyph-name="fraction" horiz-adv-x="553" unicode="⁄" d="M36 148l472 474q21 -28 21 -47q0 -11 -12 -23l-473 -473q-19 27 -19 45q0 11 11 24z"/>
<glyph glyph-name="Euro" horiz-adv-x="600" unicode="€" d="M412 386h-279v-70h270v-5.5t-2.5 -13t-7 -16.5t-16 -13t-27.5 -6h-217v-34q0 -184 199 -184q75 0 129.5 28t54.5 80q20 -31 20 -58q0 -51 -64 -78.5t-140 -27.5q-116 0 -186.5 53.5t-70.5 171.5v268q0 117 69.5 171t184.5 54q79 0 133.5 -29.5t54.5 -74.5q0 -31 -22 -60 q0 47 -46.5 77.5t-119.5 30.5q-95 0 -145.5 -43t-50.5 -140v-27h332v-5.5t-2.5 -13t-7 -16.5t-16 -13t-27.5 -6z"/>
<glyph glyph-name="trademark" horiz-adv-x="1029" unicode="™" d="M899 347v216l4 45q-99 -155 -148 -232q-39 9 -55 35l-137 213q3 -35 3 -61v-249q-51 9 -51 33v347q22 0 35 -1.5t29 -9t25 -22.5l136 -222l159 255q50 0 50 -32v-348q-50 9 -50 33zM369 561v89h-108v-336q-51 9 -51 33v303h-105v-89q-45 13 -45 34v99h353v-99 q0 -25 -44 -34z"/>
<glyph glyph-name="partialdiff" horiz-adv-x="786" unicode="∂" d="M283 135q7 -1 19 -1q45 0 69 25t31.5 63t13.5 78t25.5 76.5t56.5 51.5q21 8 40 8q37 0 64.5 -26t27.5 -68q0 -18 -6 -33q24 9 46 9q48 0 77 -36t29 -82q0 -91 -85.5 -148.5t-188.5 -57.5q-79 0 -141 36.5t-78 104.5zM487 519h-426q-22 0 -35 15.5t-14 31.5l-2 15h490 q92 0 149 -43.5t57 -115.5q0 -35 -16 -60.5t-45 -29.5q14 30 14 60q0 58 -44 92t-128 35z"/>
<glyph glyph-name="product" horiz-adv-x="786" unicode="∏" d="M725 519h-426q-84 -1 -128 -35t-44 -92q0 -30 14 -60q-29 4 -45 29.5t-16 60.5q0 72 57 115.5t149 43.5h490q0 -3 -0.5 -7t-3.5 -14.5t-7.5 -19t-15 -15t-24.5 -6.5zM503 135q-16 -68 -78 -104.5t-141 -36.5q-103 0 -188.5 57.5t-85.5 148.5q0 46 29 82t77 36q22 0 46 -9 q-6 15 -6 33q0 42 27.5 68t64.5 26q19 0 40 -8q37 -15 56.5 -51.5t25.5 -76.5t13.5 -78t31.5 -63t69 -25q12 0 19 1z"/>
<glyph glyph-name="summation" horiz-adv-x="851" unicode="∑" d="M70 131v177q0 93 43 152.5t114 59.5q88 0 98 -63q-27 14 -59 14q-60 0 -96 -44.5t-36 -131.5v-151q0 -86 54.5 -142.5t168.5 -56.5h129q113 0 172 57.5t59 141.5v220q0 88 -35 132t-95 44q-27 0 -59 -10q10 57 98 57q71 0 113 -58.5t42 -151.5v-246q0 -107 -79 -175.5 t-217 -68.5h-129q-137 0 -211.5 68t-74.5 176zM395 7q20 36 20 62q0 28 -21.5 51.5t-52.5 41t-62.5 36.5t-53 48.5t-21.5 67.5q0 46 28 73t66 27t66 -26q-1 7 -1 20q4 38 34.5 64t68.5 26q80 0 124 -66.5t44 -156.5q0 -105 -61.5 -187t-164.5 -82q-2 0 -6.5 0.5t-6.5 0.5z "/>
<glyph glyph-name="minus" horiz-adv-x="485" unicode="−" d="M105 276h317q1 -3 1 -14q0 -40 -29 -40h-316q-1 4 -1 16q0 38 28 38z"/>
<glyph glyph-name="radical" horiz-adv-x="479" unicode="√" d="M160 123q-55 17 -55 58q0 43 78 105q-39 14 -80 14q-30 0 -51 -26q-2 20 -2 26q0 26 16 44.5t53 18.5q19 0 89 -28q-21 101 -76 110q25 25 52 25q29 0 50 -33.5t28 -94.5q24 20 43 46t19 46q0 16 -4 27q29 -7 41 -20.5t12 -39.5q0 -47 -79 -104q38 -14 82 -14q30 0 51 26 q2 -20 2 -26q0 -26 -16 -44.5t-54 -18.5q-20 0 -87 29q6 -44 24.5 -75t50.5 -36q-27 -25 -53 -25q-29 0 -50 33t-27 94q-26 -20 -45 -46t-19 -46q0 -14 7 -25z"/>
<glyph glyph-name="infinity" horiz-adv-x="602" unicode="∞" d="M159 287h284l-38 126q-20 65 -46 118.5t-42 74.5l-16 21q-7 -8 -18 -23t-38.5 -70.5t-47.5 -120.5zM228 830q-5 -10 -5 -24t5.5 -27.5t21 -30t21.5 -21.5t27 -24h5l10 9q10 8 12 10t11 10t11.5 11.5t9.5 11t9.5 13t6 12.5t5 13.5t1.5 13.5q0 10 -5 23q44 -15 44 -57 q0 -38 -35 -67l-44 -37q71 -83 117 -230q7 -23 23 -75t25 -81.5t23 -75.5t23.5 -75t20 -60.5t18.5 -50.5t13 -28q-3 -1 -10 -1q-12 0 -22.5 3t-19 10t-15.5 14t-13 19.5t-10.5 21t-10 25t-8 25t-7.5 27t-7 25.5l-20 70h-316l-20 -70q-2 -7 -7 -25.5t-7.5 -27t-8 -25t-10 -25 t-10.5 -21t-13 -19.5t-15.5 -14t-19 -10t-22.5 -3q-7 0 -10 1q5 9 13 28t18.5 50.5t20 60.5t23.5 75t23 75.5t25 81.5t23 75q47 151 117 230l-44 36q-38 30 -38 67q0 39 47 58z"/>
<glyph glyph-name="approxequal" horiz-adv-x="624" unicode="≈" d="M48 307q-3 14 -3 22q0 56 81 56q37 0 187 -26t189 -26q20 0 38.5 5.5t27.5 11.5l8 6q3 -14 3 -24q0 -22 -18.5 -38t-63.5 -16q-37 0 -186.5 26t-188.5 26q-24 0 -42.5 -6t-25.5 -12zM48 162q-3 14 -3 22q0 56 81 56q37 0 187 -26t189 -26q20 0 38.5 6t27.5 12l8 5 q3 -14 3 -24q0 -22 -18.5 -38t-63.5 -16q-37 0 -186.5 26t-188.5 26q-24 0 -42.5 -5.5t-25.5 -11.5z"/>
<glyph glyph-name="notequal" horiz-adv-x="485" unicode="≠" d="M104 354h136l39 147q44 -15 44 -41q0 -4 -2 -12l-25 -94h112q1 -3 1 -14q0 -40 -29 -40h-99l-22 -82h149q1 -3 1 -14q0 -40 -29 -40h-135l-39 -145q-44 12 -44 41q0 3 2 11l25 93h-112q-1 4 -1 16q0 38 28 38h99l22 82h-148q-1 4 -1 16q0 38 28 38z"/>
<glyph glyph-name="lessequal" horiz-adv-x="403" unicode="≤" d="M102 54h234q1 -3 1 -14q0 -40 -29 -40h-233q-1 4 -1 16q0 38 28 38zM122 357l203 -203q-17 -26 -36 -26q-16 0 -52 36l-148 148q-24 24 -24 44q0 21 25 46l199 199q29 -18 29 -38q0 -4 -2.5 -9t-8.5 -12t-9.5 -10.5l-13 -13l-11.5 -11.5z"/>
<glyph glyph-name="greaterequal" horiz-adv-x="400" unicode="≥" d="M94 54h234q1 -3 1 -14q0 -40 -29 -40h-233q-1 4 -1 16q0 38 28 38zM75 154l203 203l-151 150l-11.5 11.5l-13 13t-9.5 10.5t-8.5 12t-2.5 9q0 20 29 38l199 -199q25 -25 25 -46q0 -20 -24 -44l-148 -148q-36 -36 -52 -36q-19 0 -36 26z"/>
<glyph glyph-name="lozenge" horiz-adv-x="833" unicode="◊" d="M264 482l-5 -76q0 -20 27 -27l97 -16l2 76q0 6 -8 14.5t-17 10.5zM605 345l-5 73l-89 18q-23 0 -23 -17q0 -13 0.5 -37t0.5 -37l91 -17q13 0 19.5 4t5.5 13zM330 144l206 -30q2 0 5 -0.5t5 -0.5q61 0 61 59q0 32 -10 47q-20 -22 -55 -22l-220 35q-34 9 -58 40 q-10 -10 -10 -45q0 -67 76 -83zM189 613l25 -23q20 2 32 2q72 0 207 -30.5t185 -57.5l25 13q45 23 45 47q0 11 -8 26q76 -37 76 -75q0 -25 -38 -48l-38 -23q13 -33 14 -50l25 -225q1 -9 1 -26q0 -148 -212 -148q-47 0 -97 7q-168 21 -253 83t-85 157q0 8 2 28l30 234 q4 28 18 51l-41 38q-47 43 -47 69q0 45 93 45q-12 -9 -12 -21q0 -24 53 -73z"/>
</font>
</defs>
</svg>
